<svg width="23" height="23" viewBox="0 0 23 23" fill="none" xmlns="http://www.w3.org/2000/svg">
<path d="M0 8.625H23V13.6562H0V8.625Z" fill="#E6E7E8"/>
<path d="M19.4062 3.23438H3.59375C1.21217 3.23438 0 5.0043 0 7.1875V8.625H23V7.1875C23 5.0043 21.7878 3.23438 19.4062 3.23438Z" fill="#FF9933"/>
<path d="M0 15.0938C0 17.277 1.21217 19.0469 3.59375 19.0469H19.4062C21.7878 19.0469 23 17.277 23 15.0938V13.6562H0V15.0938Z" fill="#128807"/>
<path fill-rule="evenodd" clip-rule="evenodd" d="M11.6119 8.83447C12.071 8.83447 12.5199 8.97068 12.9016 9.22586C13.2834 9.48103 13.5808 9.84371 13.7564 10.268C13.9319 10.6923 13.9777 11.1591 13.8878 11.6094C13.798 12.0597 13.5766 12.4732 13.2517 12.7977C12.9267 13.1221 12.5129 13.3429 12.0624 13.432C11.612 13.5211 11.1452 13.4747 10.7212 13.2985C10.2972 13.1223 9.93499 12.8242 9.6804 12.4421C9.42582 12.06 9.29031 11.6109 9.29102 11.1517C9.29216 10.5369 9.53716 9.9476 9.97226 9.51317C10.4074 9.07875 10.997 8.83466 11.6119 8.83447ZM10.0648 9.83893C10.1046 9.88421 10.1118 9.93272 10.0852 9.97333C10.074 9.99209 10.0566 10.0063 10.036 10.0136C10.0202 10.0195 10.0032 10.0214 9.98652 10.0193C9.96981 10.0172 9.95387 10.011 9.94005 10.0014C9.8776 10.0908 9.82267 10.1853 9.77582 10.2838C9.83008 10.3194 9.84805 10.364 9.83008 10.4132C9.82047 10.4383 9.80146 10.4586 9.7771 10.4699C9.75275 10.4811 9.72495 10.4825 9.69963 10.4736C9.67375 10.5253 9.61661 10.7438 9.61589 10.7898C9.63952 10.7948 9.66078 10.8076 9.67627 10.8261C9.69224 10.8449 9.70046 10.8691 9.69927 10.8937C9.69244 10.9613 9.65075 10.99 9.58714 10.9925C9.57708 11.0576 9.57816 11.2753 9.58822 11.3181C9.65531 11.3253 9.6916 11.3546 9.69711 11.4062C9.70502 11.4615 9.67842 11.4974 9.61374 11.5226C9.6329 11.6295 9.6607 11.7343 9.69711 11.8371C9.72246 11.8295 9.74957 11.8304 9.77438 11.8396C9.79846 11.85 9.8175 11.868 9.82757 11.8928C9.83643 11.9119 9.83847 11.9322 9.83367 11.9535C9.8303 11.9692 9.82331 11.984 9.81327 11.9966C9.80324 12.0092 9.79041 12.0193 9.77582 12.0261C9.82397 12.126 9.87716 12.2201 9.94005 12.3086C9.99611 12.2809 10.045 12.2873 10.078 12.3269C10.0925 12.3432 10.1007 12.364 10.1014 12.3858C10.1024 12.4019 10.0996 12.418 10.0931 12.4328C10.0866 12.4475 10.0766 12.4605 10.064 12.4706C10.1357 12.5545 10.2129 12.6317 10.2958 12.7024C10.3429 12.6611 10.3918 12.6546 10.4338 12.6841C10.453 12.6975 10.4658 12.715 10.4723 12.7366C10.4766 12.7518 10.4775 12.7679 10.4749 12.7835C10.4723 12.7992 10.4662 12.8141 10.4572 12.8271C10.548 12.8894 10.6423 12.9438 10.74 12.9903C10.7784 12.9366 10.8212 12.9188 10.8687 12.9367C10.8892 12.9441 10.907 12.9575 10.9197 12.9752C10.9372 13.0039 10.9406 13.0353 10.9298 13.0693C11.0333 13.106 11.1375 13.134 11.2453 13.1531C11.2665 13.0923 11.3032 13.064 11.352 13.0676C11.3747 13.0693 11.3952 13.0762 11.4131 13.0916C11.4383 13.1146 11.4499 13.144 11.448 13.1797C11.5582 13.1878 11.667 13.1878 11.7743 13.1797C11.7822 13.1103 11.8099 13.0755 11.8656 13.0676C11.8867 13.0645 11.9083 13.0688 11.9267 13.0798C11.9401 13.0874 11.9516 13.098 11.9604 13.1107C11.9693 13.1234 11.9752 13.1378 11.9777 13.1531C12.0862 13.1332 12.1914 13.1052 12.2932 13.069C12.2843 13.0011 12.3008 12.9605 12.3464 12.9393C12.3631 12.9321 12.3812 12.9293 12.3993 12.931C12.4182 12.9322 12.4346 12.9387 12.4485 12.9504C12.4618 12.9615 12.4729 12.9752 12.4859 12.9892C12.5838 12.943 12.6778 12.8888 12.7669 12.8271C12.7302 12.7696 12.7518 12.7146 12.7816 12.6902C12.792 12.6813 12.8041 12.6745 12.8171 12.6703C12.8302 12.6661 12.8439 12.6646 12.8576 12.6657C12.8712 12.6669 12.8845 12.6708 12.8966 12.6772C12.9088 12.6835 12.9195 12.6922 12.9283 12.7028C13.0113 12.6316 13.0893 12.5544 13.159 12.4713C13.1184 12.425 13.1105 12.3761 13.1403 12.3341C13.1525 12.3153 13.1709 12.3015 13.1924 12.2953C13.2077 12.2904 13.224 12.2891 13.2399 12.2915C13.2558 12.2939 13.2709 12.3 13.284 12.3093C13.3468 12.2189 13.4015 12.1247 13.4483 12.0264C13.3956 11.9912 13.377 11.95 13.3926 11.9028C13.3984 11.8819 13.411 11.8636 13.4285 11.8507C13.4424 11.8408 13.4584 11.8343 13.4753 11.8318C13.4922 11.8293 13.5094 11.8309 13.5255 11.8363C13.5489 11.7857 13.6071 11.5722 13.6103 11.5204C13.5855 11.5158 13.5632 11.5025 13.5471 11.4831C13.5388 11.4733 13.5325 11.462 13.5287 11.4498C13.525 11.4375 13.5238 11.4246 13.5252 11.4119C13.5266 11.3892 13.536 11.3677 13.5518 11.3512C13.5627 11.3399 13.576 11.3312 13.5906 11.3256C13.6053 11.3201 13.6209 11.3177 13.6366 11.3188C13.6456 11.2101 13.6456 11.1009 13.6366 10.9922C13.5679 10.9853 13.5352 10.9587 13.5263 10.9045C13.5223 10.8839 13.5253 10.8627 13.5349 10.8441C13.5423 10.8297 13.5529 10.8173 13.566 10.8078C13.579 10.7982 13.5941 10.7918 13.61 10.7891C13.5912 10.6817 13.5631 10.5762 13.5263 10.4736C13.4598 10.4847 13.4188 10.4668 13.3969 10.4208C13.3912 10.4085 13.388 10.3951 13.3875 10.3816C13.387 10.3681 13.3892 10.3546 13.394 10.3419C13.3988 10.3292 13.4061 10.3176 13.4154 10.3078C13.4247 10.2979 13.4359 10.29 13.4483 10.2846C13.4017 10.1857 13.3468 10.0911 13.284 10.0017C13.2262 10.0294 13.1791 10.0229 13.146 9.98339C13.1314 9.96664 13.1233 9.94524 13.123 9.92302C13.1223 9.90722 13.1253 9.89147 13.1318 9.87704C13.1383 9.86262 13.1481 9.84993 13.1604 9.84C13.0894 9.757 13.0121 9.67951 12.9293 9.60821C12.8797 9.65061 12.8316 9.656 12.7906 9.62654C12.7719 9.61422 12.7583 9.5956 12.7522 9.57407C12.7478 9.55898 12.7468 9.54309 12.7495 9.52759C12.7521 9.5121 12.7582 9.49739 12.7673 9.48458C12.6777 9.42212 12.5831 9.36719 12.4844 9.32035C12.4475 9.37306 12.4056 9.39138 12.3586 9.37533C12.3379 9.36845 12.3197 9.35541 12.3065 9.33796C12.2971 9.32393 12.291 9.30787 12.2889 9.29108C12.2868 9.27429 12.2886 9.25723 12.2943 9.24129C12.1919 9.20386 12.0863 9.17583 11.9788 9.15755C11.9583 9.21577 11.9213 9.24596 11.8735 9.24308C11.8512 9.24191 11.8299 9.23388 11.8124 9.22008C11.7996 9.20924 11.7897 9.19547 11.7833 9.17996C11.777 9.16445 11.7745 9.14764 11.7761 9.13096C11.6675 9.12174 11.5583 9.12186 11.4498 9.13132C11.4421 9.19624 11.4143 9.23278 11.3664 9.24093C11.3449 9.24557 11.3225 9.24278 11.3028 9.23302C11.2882 9.22568 11.2754 9.21498 11.2657 9.20181C11.256 9.18863 11.2495 9.17335 11.2467 9.15719C11.1393 9.17673 11.0337 9.20497 10.9308 9.24164C10.9423 9.30525 10.9244 9.34694 10.8805 9.36958C10.8616 9.37964 10.8411 9.38288 10.8191 9.37929C10.8023 9.37704 10.7864 9.37045 10.773 9.36017C10.7596 9.3499 10.7491 9.33629 10.7425 9.32071C10.6811 9.34371 10.4856 9.45691 10.4597 9.4853C10.4863 9.53849 10.4802 9.58557 10.4435 9.61935C10.4332 9.6285 10.4211 9.63547 10.408 9.63986C10.3949 9.64424 10.381 9.64595 10.3672 9.64487C10.3535 9.6438 10.34 9.63997 10.3278 9.63361C10.3155 9.62725 10.3046 9.61849 10.2958 9.60785C10.2131 9.67892 10.1358 9.75617 10.0648 9.83893Z" fill="#010088"/>
<path fill-rule="evenodd" clip-rule="evenodd" d="M12.6074 12.8754C12.6031 12.8707 12.5988 12.8675 12.5956 12.8625C12.3866 12.5431 12.1771 12.2241 11.967 11.9054L11.9526 11.8774C11.9038 11.7635 11.856 11.6496 11.806 11.536C11.8045 11.5301 11.8022 11.5244 11.7992 11.5191C11.7791 11.5267 11.7607 11.5353 11.7392 11.5435L11.7464 11.5619C11.7913 11.6722 11.8344 11.7829 11.88 11.8932C11.8923 11.9227 11.8973 11.9536 11.9038 11.9845C11.939 12.1495 11.972 12.3151 12.0076 12.4804L12.1291 13.0709C12.1299 13.0723 12.1302 13.0738 12.13 13.0754C12.1298 13.0769 12.1291 13.0784 12.128 13.0795L12.123 13.0669C12.0245 12.7654 11.9235 12.4643 11.8247 12.1628C11.8049 12.1038 11.7873 12.0456 11.7658 11.9867C11.7557 11.9572 11.7525 11.927 11.7478 11.8965C11.7352 11.8109 11.7244 11.7247 11.7104 11.6391C11.7083 11.6188 11.7056 11.5987 11.7025 11.5788L11.6986 11.5543C11.677 11.5565 11.6572 11.5594 11.6357 11.5619C11.6357 11.5705 11.6362 11.5794 11.6371 11.5885C11.6497 11.6938 11.6605 11.7994 11.6756 11.9044C11.6835 11.9619 11.6795 12.0183 11.6763 12.0758L11.6687 12.2217C11.6623 12.3202 11.6572 12.4183 11.6504 12.5164L11.6396 12.7191L11.6202 13.063C11.6173 13.0953 11.6166 13.1284 11.6134 13.16L11.6048 13.0511L11.5936 12.8154L11.5807 12.6051C11.5769 12.5333 11.5728 12.4615 11.5685 12.3899L11.5606 12.2494L11.5483 12.0269C11.5447 11.9876 11.5456 11.9481 11.5512 11.909C11.5584 11.8556 11.565 11.8018 11.571 11.7477C11.5779 11.6942 11.5845 11.6412 11.5908 11.5885L11.5925 11.5619L11.5297 11.5536C11.5275 11.568 11.525 11.5822 11.5221 11.5964L11.4761 11.9256C11.4718 11.9683 11.4549 12.0079 11.4405 12.0478C11.3298 12.3851 11.2186 12.7222 11.1067 13.059C11.1042 13.0651 11.1031 13.0709 11.0984 13.0766C11.0982 13.0726 11.0988 13.0687 11.1002 13.0651C11.1464 12.8378 11.1935 12.6105 11.2414 12.3834L11.3349 11.9313L11.3435 11.9065C11.3899 11.7926 11.4344 11.6776 11.4819 11.5637C11.4836 11.557 11.486 11.5505 11.489 11.5443L11.4294 11.5195C11.4269 11.5259 11.4229 11.5313 11.4208 11.5378L11.2731 11.881C11.27 11.8896 11.2662 11.8979 11.2616 11.9058C11.0495 12.227 10.8381 12.5487 10.6273 12.8707C10.6246 12.8757 10.6208 12.88 10.6161 12.8833L10.6233 12.8678L11.143 11.8375C11.1475 11.8282 11.1531 11.8194 11.1595 11.8113L11.3816 11.5134C11.3863 11.5083 11.3891 11.5037 11.3935 11.4983C11.3751 11.485 11.3604 11.4728 11.3421 11.4587C11.338 11.4633 11.3344 11.4677 11.3313 11.472C11.2537 11.5698 11.177 11.6673 11.1013 11.7646C11.0931 11.7737 11.0844 11.7825 11.075 11.7912C10.7919 12.0445 10.5087 12.2964 10.2244 12.5502C10.2189 12.5552 10.2127 12.5595 10.2057 12.5631L10.2129 12.5534C10.4458 12.293 10.6781 12.0325 10.9097 11.7721C10.9232 11.7577 10.9362 11.743 10.9489 11.7279C10.9755 11.6972 11.0051 11.6697 11.0377 11.6453L11.2957 11.4422C11.3015 11.4379 11.3058 11.4332 11.3122 11.4289L11.2727 11.3782L11.2569 11.3894L10.96 11.6111C10.9487 11.6191 10.937 11.6264 10.9248 11.633C10.5874 11.8034 10.2481 11.9737 9.90996 12.1441C9.90349 12.1469 9.89738 12.1505 9.88983 12.1505L9.90349 12.1408L10.5345 11.7276C10.6448 11.6554 10.7546 11.5831 10.8641 11.5105L10.8914 11.4961C11.0062 11.4475 11.1203 11.3987 11.2339 11.3498C11.2392 11.3479 11.2449 11.3454 11.2511 11.3423L11.2271 11.283C11.2202 11.2848 11.2159 11.2866 11.2105 11.2884C11.0941 11.3348 10.9787 11.3818 10.8616 11.4278C10.8375 11.4368 10.8113 11.4411 10.7858 11.4465L10.0005 11.6097C9.90169 11.6309 9.80107 11.6517 9.70188 11.6722C9.69788 11.6731 9.69369 11.6726 9.69002 11.6708C9.71733 11.6619 9.74452 11.6528 9.7716 11.6435C10.1108 11.5318 10.4496 11.4199 10.7879 11.3078C10.8145 11.2988 10.8429 11.2963 10.8698 11.292L11.1962 11.2456L11.2159 11.2413L11.2087 11.1781L11.1563 11.1838L10.9392 11.2101L10.8185 11.2248C10.8089 11.226 10.7994 11.2263 10.7901 11.2259L10.5615 11.2126L10.4264 11.205L10.1935 11.1914L9.85389 11.1727C9.77196 11.1684 9.69217 11.163 9.6106 11.1572C9.62353 11.1561 9.63791 11.154 9.65192 11.154L9.93044 11.1382L10.2984 11.1173L10.6032 11.1001L10.7944 11.0886C10.8025 11.0886 10.8105 11.0891 10.8185 11.09L11.0377 11.1163L11.1929 11.1349H11.2087C11.2105 11.1145 11.2138 11.0951 11.2159 11.0728C11.2026 11.0699 11.1875 11.0677 11.1742 11.0652C11.0784 11.0518 10.9827 11.038 10.8871 11.0239L10.8274 11.016C10.8164 11.0145 10.8056 11.0119 10.7951 11.0084C10.5094 10.9146 10.2255 10.8201 9.94014 10.7263L9.70224 10.6473C9.69548 10.6452 9.68906 10.6422 9.68319 10.6383L9.73314 10.6483L10.343 10.7752C10.5062 10.8093 10.6718 10.8431 10.835 10.8776L10.8637 10.8866C10.9787 10.9319 11.0927 10.9786 11.2087 11.0246L11.226 11.0314C11.2339 11.012 11.2423 10.9923 11.2511 10.9721C11.2453 10.9687 11.2391 10.9657 11.2328 10.9632C11.1185 10.9148 11.0045 10.8659 10.8907 10.8165L10.8648 10.8032C10.5425 10.5923 10.2215 10.3803 9.89881 10.1689C9.89449 10.1667 9.89107 10.163 9.88911 10.1585L9.90205 10.1657C10.2233 10.3274 10.545 10.489 10.867 10.6505C10.9202 10.6771 10.9719 10.7091 11.0193 10.7454C11.0977 10.8061 11.1775 10.8643 11.2573 10.924L11.2731 10.9351L11.3126 10.8852L11.2986 10.873L11.0064 10.6433C10.9968 10.6354 10.988 10.6271 10.9798 10.6185C10.7251 10.3334 10.4708 10.0483 10.2169 9.76321C10.2134 9.76007 10.2106 9.75628 10.2086 9.75207C10.2161 9.75278 10.219 9.75782 10.2223 9.76105C10.3761 9.89761 10.5294 10.0342 10.6823 10.1707L11.0783 10.5236C11.0855 10.5306 11.0923 10.5378 11.0988 10.5452L11.3255 10.8334C11.3313 10.8399 11.3356 10.8467 11.3421 10.8553L11.3942 10.8155C11.3909 10.8104 11.3866 10.8065 11.3841 10.8018C11.3103 10.7029 11.2362 10.604 11.1617 10.5053C11.1539 10.4938 11.1468 10.4818 11.1405 10.4694C10.9682 10.1292 10.7965 9.78896 10.6255 9.44875C10.6222 9.44228 10.619 9.43725 10.6183 9.43043L10.6269 9.44049L10.9942 10.0018L11.254 10.3971C11.263 10.4122 11.2731 10.4281 11.2788 10.4446C11.327 10.5553 11.3744 10.6661 11.4211 10.777C11.424 10.7818 11.4269 10.7874 11.4298 10.7939L11.4894 10.7691L11.4829 10.754C11.4384 10.6419 11.3936 10.53 11.3485 10.4183C11.336 10.39 11.3313 10.3605 11.3252 10.331C11.286 10.1438 11.2483 9.95619 11.2091 9.7686C11.1706 9.58819 11.134 9.40922 11.0963 9.2281C11.0958 9.22738 11.0963 9.22534 11.0977 9.22199L11.1293 9.31794C11.2422 9.65695 11.3539 9.99632 11.4646 10.3361C11.474 10.3626 11.4772 10.3918 11.4811 10.4194C11.4941 10.5138 11.508 10.6085 11.5228 10.7033C11.5253 10.7213 11.5264 10.7393 11.53 10.759L11.5925 10.7511V10.7274L11.5652 10.5021C11.5598 10.4582 11.5559 10.4155 11.5498 10.3727C11.5463 10.3439 11.5463 10.3149 11.5498 10.2861L11.558 10.1402L11.5757 9.8473C11.5789 9.79483 11.58 9.74164 11.5832 9.68918C11.5878 9.62065 11.5918 9.55189 11.5954 9.48289C11.5985 9.43258 11.6012 9.38227 11.6033 9.33196C11.6064 9.27278 11.6106 9.21372 11.6159 9.15479C11.6171 9.17084 11.6181 9.18749 11.6188 9.20474C11.6236 9.27685 11.6279 9.34921 11.6317 9.4218L11.6504 9.75099L11.6615 9.93571L11.6784 10.2563L11.682 10.3033C11.6867 10.345 11.6784 10.3864 11.6748 10.4277L11.6518 10.616C11.6483 10.6516 11.6429 10.6872 11.6385 10.7231C11.6378 10.7317 11.6378 10.7411 11.6353 10.7515C11.6576 10.7547 11.6777 10.7569 11.7 10.7598C11.7032 10.7443 11.7047 10.7299 11.7072 10.7148C11.7244 10.5982 11.7412 10.4811 11.7575 10.3637C11.7589 10.3551 11.7625 10.3461 11.7647 10.3371C11.8818 9.98566 11.9968 9.63383 12.1133 9.28164C12.119 9.26547 12.1233 9.25002 12.1323 9.23457L12.1284 9.259C12.0759 9.51344 12.0213 9.76716 11.9692 10.0209C11.9457 10.14 11.9214 10.259 11.8962 10.3781C11.8944 10.3879 11.8913 10.3975 11.8869 10.4065L11.7482 10.7533C11.7458 10.7581 11.7435 10.7637 11.7413 10.7702C11.7629 10.7784 11.7805 10.7867 11.8013 10.795L11.8096 10.7777L11.9544 10.4374C11.9602 10.4259 11.9645 10.4148 11.972 10.4054L12.5992 9.44875C12.6031 9.44372 12.6063 9.43869 12.6125 9.4351C12.6103 9.44013 12.6078 9.44516 12.6049 9.45019L12.0892 10.4744C12.0839 10.4842 12.0782 10.4936 12.072 10.5024L11.8484 10.8004L11.8366 10.8165L11.8876 10.8564L11.8987 10.8428C11.9747 10.7457 12.0511 10.6486 12.128 10.5513C12.1365 10.5404 12.146 10.5303 12.1564 10.5211C12.4403 10.2674 12.7245 10.0141 13.0088 9.76105C13.0135 9.7571 13.0168 9.75314 13.0243 9.75099L13.015 9.76249C12.8992 9.89354 12.7826 10.0242 12.6649 10.1546C12.5252 10.3108 12.386 10.467 12.2473 10.6232C12.2397 10.6311 12.2319 10.6382 12.224 10.6444L11.9318 10.874L11.9174 10.8855C11.9311 10.9028 11.9433 10.9193 11.9577 10.9366L11.9731 10.9251L12.2725 10.7008L12.2962 10.6857C12.6407 10.5127 12.9843 10.3398 13.3269 10.1668C13.3322 10.1639 13.3377 10.1624 13.3434 10.1621C13.3281 10.1724 13.3126 10.1825 13.2971 10.1923L12.3656 10.8036C12.3572 10.8089 12.3486 10.8135 12.3397 10.8176C12.225 10.8672 12.1093 10.9161 11.9958 10.9653L11.9774 10.9725C11.9871 10.9926 11.994 11.0117 12.0026 11.0318L12.0191 11.0264C12.1345 10.9808 12.2491 10.933 12.3656 10.8888C12.3943 10.8773 12.4259 10.8722 12.4572 10.8658L12.9866 10.7558C13.1512 10.722 13.3143 10.6875 13.4793 10.6534C13.4939 10.65 13.5089 10.6469 13.5242 10.644C13.5281 10.644 13.5317 10.6433 13.5375 10.6455L13.4872 10.662C13.1364 10.7782 12.7857 10.8937 12.4349 11.0084C12.4083 11.0178 12.3789 11.0203 12.3512 11.0246L12.1183 11.058L12.0346 11.0699L12.0141 11.0735C12.0163 11.0947 12.0195 11.1145 12.0209 11.1375L12.0752 11.1317L12.2693 11.1087C12.3178 11.1026 12.3684 11.0958 12.4191 11.0911C12.4418 11.0893 12.4648 11.0915 12.4881 11.0925C12.5373 11.0947 12.5866 11.099 12.638 11.1012L12.9283 11.1184L13.0592 11.1256L13.3553 11.1425C13.4254 11.1468 13.4976 11.15 13.5673 11.1543C13.5846 11.1553 13.6019 11.1568 13.6191 11.159L13.5666 11.1633L13.3492 11.1752L13.08 11.191L12.877 11.2018C12.7835 11.2075 12.6883 11.2129 12.5941 11.219C12.5424 11.2212 12.4892 11.2262 12.4371 11.2266C12.4073 11.2273 12.376 11.2216 12.3469 11.2183L12.1553 11.1953L12.0328 11.1806H12.0209C12.019 11.2012 12.0167 11.2223 12.0141 11.2438L12.3943 11.2988C12.4317 11.3035 12.4644 11.3182 12.4996 11.3294L13.5217 11.6668C13.5284 11.6678 13.5348 11.6706 13.54 11.6751C13.5316 11.6736 13.5231 11.6724 13.5145 11.6715L12.6268 11.4864L12.3925 11.4375C12.385 11.4354 12.3749 11.4325 12.3666 11.4286C12.2514 11.3828 12.1357 11.3366 12.0195 11.2898L12.004 11.2844L11.9778 11.343L11.9968 11.352C12.1114 11.4006 12.2255 11.4495 12.3393 11.4986C12.3482 11.5025 12.3573 11.5075 12.3666 11.5137L13.3233 12.1405C13.328 12.1441 13.3341 12.1484 13.338 12.1552C13.333 12.1528 13.3283 12.1503 13.324 12.1477L12.8256 11.8975C12.6514 11.8094 12.4764 11.7212 12.3005 11.633C12.2892 11.6276 12.2787 11.6207 12.2693 11.6126L11.9717 11.3905L11.9577 11.3804C11.944 11.3969 11.9318 11.4131 11.9174 11.4303L11.9311 11.4411C12.0274 11.518 12.1255 11.5949 12.2222 11.6715C12.2331 11.6794 12.2431 11.6886 12.252 11.6988L13.0135 12.5509C13.0169 12.555 13.0194 12.5597 13.0207 12.5649C13.0168 12.5606 13.0114 12.5577 13.0074 12.5545C12.7216 12.2993 12.4355 12.0444 12.1492 11.7897C12.1427 11.784 12.1369 11.7775 12.132 11.7703L11.8991 11.4735C11.8957 11.4689 11.892 11.4644 11.888 11.4598C11.8714 11.4735 11.8553 11.4857 11.8387 11.5001C11.8404 11.5046 11.8429 11.509 11.8463 11.5134L12.0723 11.8145C12.0785 11.8235 12.0842 11.8327 12.0896 11.8422L12.6031 12.8632C12.606 12.8677 12.6079 12.8729 12.6085 12.8783H12.6074V12.8754Z" fill="#010088"/>
<path fill-rule="evenodd" clip-rule="evenodd" d="M12.6038 12.8755L12.6124 12.8863C12.6106 12.887 12.6106 12.8881 12.6084 12.8884C12.6077 12.8834 12.6052 12.8802 12.6045 12.8755H12.6038Z" fill="#010088"/>
</svg>
