<svg width="25" height="25" viewBox="0 0 25 25" fill="none" xmlns="http://www.w3.org/2000/svg">
<g clip-path="url(#clip0_1430_12143)">
<path d="M25.0002 4.36242C24.7448 4.48587 24.4895 4.71721 24.233 4.71833C18.894 4.73946 13.5539 4.73501 8.2148 4.73278C7.60321 4.73278 7.47982 4.61044 7.47446 3.98982C7.46588 2.93433 7.44764 1.87883 7.48841 0.825563C7.49914 0.554182 7.71266 0.291699 7.8339 0.0258789C13.556 0.0258789 19.2792 0.0258789 25.0013 0.0258789V4.36353L25.0002 4.36242Z" fill="white"/>
<path d="M7.83195 24.0487C7.71178 23.7818 7.49718 23.5182 7.48645 23.2468C7.44568 22.1935 7.46392 21.1369 7.47251 20.0826C7.47787 19.4675 7.60448 19.3418 8.215 19.3418C13.5541 19.3396 18.892 19.3351 24.2311 19.3563C24.4875 19.3563 24.7429 19.5887 24.9993 19.7122V24.0498H7.83195V24.0487Z" fill="white"/>
<path d="M25.0001 14.0388C24.7383 14.1544 24.4765 14.3713 24.2136 14.3713C18.8917 14.3914 13.5687 14.3869 8.24684 14.3847C7.59877 14.3847 7.4786 14.269 7.47323 13.6206C7.46465 12.5651 7.46465 11.5096 7.47323 10.4552C7.4786 9.80679 7.60092 9.68778 8.24684 9.68778C13.5687 9.68556 18.8917 9.68222 24.2136 9.70113C24.4765 9.70113 24.7383 9.91801 25.0001 10.0337V14.0377V14.0388Z" fill="white"/>
<path d="M4.50644 0.0249023C4.6191 0.296283 4.81974 0.564328 4.8294 0.840158C4.86803 1.89454 4.83476 2.95115 4.84871 4.00664C4.85622 4.52605 4.6427 4.74515 4.1427 4.73848C2.99893 4.72402 1.85515 4.75516 0.712446 4.71735C0.472103 4.70956 0.237124 4.48601 0 4.36255C0 2.91667 0 1.47079 0 0.0249023C1.50215 0.0249023 3.00429 0.0249023 4.50644 0.0249023Z" fill="white"/>
<path d="M0 19.711C0.238197 19.5876 0.474249 19.364 0.715665 19.3562C1.8573 19.3184 3.00107 19.3496 4.14485 19.3351C4.64592 19.3284 4.85622 19.552 4.84871 20.0692C4.83476 21.1247 4.86695 22.1802 4.8294 23.2345C4.81974 23.5104 4.6191 23.7773 4.50644 24.0487H0C0 22.6028 0 21.1569 0 19.711Z" fill="white"/>
<path d="M0 10.0348C0.261803 9.91916 0.520386 9.71229 0.785408 9.70339C1.87232 9.66558 2.96137 9.6856 4.04936 9.68893C4.71459 9.69116 4.8412 9.81573 4.84442 10.4864C4.84871 11.5219 4.84871 12.5573 4.84442 13.5928C4.8412 14.269 4.72318 14.3858 4.04828 14.3881C2.9603 14.3914 1.87124 14.4114 0.784335 14.3725C0.519313 14.3636 0.261803 14.1567 0 14.041C0 12.7064 0 11.3717 0 10.0371L0 10.0348Z" fill="white"/>
</g>
<defs>
<clipPath id="clip0_1430_12143">
<rect width="25" height="24.0239" fill="white" transform="translate(0 0.0249023)"/>
</clipPath>
</defs>
</svg>
