<svg width="194" height="53" viewBox="0 0 194 53" fill="none" xmlns="http://www.w3.org/2000/svg">
<path d="M1.97589 15.6459C1.06952 15.6459 0.616333 15.2531 0.616333 14.4676V12.1835C0.616333 11.398 1.06952 11.0052 1.97589 11.0052H20.6109C21.5173 11.0052 21.9705 11.398 21.9705 12.1835V14.4676C21.9705 15.2531 21.5173 15.6459 20.6109 15.6459H13.94V36.003C13.94 36.6677 13.6379 37 13.0336 37H9.55316C8.94891 37 8.64679 36.6677 8.64679 36.003V15.6459H1.97589ZM23.7472 37C23.2858 37 23.0551 36.7528 23.0551 36.2584V23.5626C23.0551 23.0682 23.2858 22.821 23.7472 22.821H28.3252C30.3621 22.821 31.8485 23.1375 32.7846 23.7703C33.7206 24.3965 34.1886 25.4182 34.1886 26.8354C34.1886 27.8901 33.8096 28.7306 33.0515 29.3568C32.2935 29.983 31.3311 30.3983 30.1643 30.6027V30.6224C30.7971 30.8597 31.275 31.1893 31.598 31.6112C31.921 32.0331 32.1847 32.4022 32.3891 32.7186L34.5644 36.1497C34.9269 36.7166 34.8017 37 34.1886 37H32.4682C32.1056 37 31.809 36.8055 31.5783 36.4166L29.581 33.0845C29.3634 32.7285 28.9646 32.3396 28.3845 31.9177C27.8111 31.4893 27.2409 31.275 26.674 31.275H25.9423V36.2584C25.9423 36.7528 25.7116 37 25.2501 37H23.7472ZM25.9423 28.8229H27.7122C29.0305 28.8229 29.9666 28.6746 30.5203 28.3779C31.0806 28.0747 31.3607 27.5968 31.3607 26.9442C31.3607 26.2323 31.0905 25.7709 30.5499 25.5599C30.016 25.3424 29.2283 25.2336 28.1868 25.2336H25.9423V28.8229ZM36.1223 37C35.6476 37 35.4927 36.7825 35.6575 36.3474L40.5025 23.6219C40.7069 23.088 41.0167 22.821 41.4319 22.821H42.8162C43.2315 22.821 43.5413 23.088 43.7457 23.6219L48.5906 36.3474C48.7554 36.7825 48.6005 37 48.1259 37H46.5538C46.1187 37 45.8155 36.7726 45.6441 36.3177L44.6356 33.658H39.6126L38.6041 36.3177C38.4327 36.7726 38.1295 37 37.6944 37H36.1223ZM40.5322 31.2058H43.716L42.4998 28.0615C42.3548 27.6924 42.2658 27.4254 42.2329 27.2606C42.2065 27.0892 42.1768 26.8387 42.1439 26.5092H42.1043C42.0714 26.8387 42.0384 27.0892 42.0054 27.2606C41.9791 27.4254 41.8934 27.6924 41.7484 28.0615L40.5322 31.2058ZM51.0428 37C50.5814 37 50.3507 36.7528 50.3507 36.2584V23.5626C50.3507 23.0682 50.5814 22.821 51.0428 22.821H54.4936C57.5258 22.821 59.5759 23.4341 60.6437 24.6602C61.7182 25.8862 62.2554 27.6298 62.2554 29.8907C62.2554 32.1517 61.7182 33.9019 60.6437 35.1411C59.5759 36.3804 57.5258 37 54.4936 37H51.0428ZM53.2379 34.5479H54.3057C56.3492 34.5479 57.6708 34.1688 58.2707 33.4108C58.8705 32.6461 59.1705 31.4728 59.1705 29.8907C59.1705 28.3087 58.8705 27.142 58.2707 26.3905C57.6708 25.6324 56.3492 25.2534 54.3057 25.2534H53.2379V34.5479ZM65.3799 37C64.9185 37 64.6878 36.7528 64.6878 36.2584V23.5626C64.6878 23.0682 64.9185 22.821 65.3799 22.821H66.8829C67.3443 22.821 67.575 23.0682 67.575 23.5626V36.2584C67.575 36.7528 67.3443 37 66.8829 37H65.3799ZM71.4312 37C70.9698 37 70.7391 36.7528 70.7391 36.2584V23.5626C70.7391 23.0682 70.9698 22.821 71.4312 22.821H72.8946C73.4615 22.821 73.89 23.0518 74.18 23.5132L79.2227 31.6112H79.2919C79.259 31.2157 79.2425 30.8202 79.2425 30.4247V23.5626C79.2425 23.0682 79.4732 22.821 79.9346 22.821H81.4376C81.899 22.821 82.1297 23.0682 82.1297 23.5626V36.2584C82.1297 36.7528 81.899 37 81.4376 37H80.0731C79.5062 37 79.0777 36.7693 78.7877 36.3079L73.6461 28.0615H73.5768C73.6098 28.457 73.6263 28.8525 73.6263 29.248V36.2584C73.6263 36.7528 73.3956 37 72.9341 37H71.4312ZM84.5621 29.9105C84.5621 27.6364 85.1553 25.8302 86.3419 24.4921C87.5284 23.1539 89.2093 22.4849 91.3846 22.4849C92.6964 22.4849 93.7247 22.653 94.4695 22.9891C95.221 23.3253 95.8802 23.8461 96.4471 24.5514C96.7899 24.9799 96.78 25.3127 96.4174 25.55L95.2902 26.2817C94.9606 26.4993 94.608 26.4037 94.2322 25.995C93.9224 25.6588 93.5302 25.3787 93.0556 25.1545C92.581 24.9304 92.0569 24.8184 91.4835 24.8184C90.0992 24.8184 89.1137 25.2567 88.527 26.1334C87.9404 27.0035 87.647 28.2626 87.647 29.9105C87.647 31.5585 87.9404 32.8208 88.527 33.6975C89.1137 34.5676 90.0992 35.0027 91.4835 35.0027C92.1558 35.0027 92.7359 34.9368 93.2237 34.8049C93.7115 34.6665 94.1729 34.4193 94.608 34.0634V32.2935H92.4623C91.968 32.2935 91.7208 32.0792 91.7208 31.6508V30.484C91.7208 30.0555 91.968 29.8413 92.4623 29.8413H96.7536C97.248 29.8413 97.4952 30.0555 97.4952 30.484V35.507C96.5723 36.1859 95.6396 36.6605 94.697 36.9308C93.7609 37.201 92.6568 37.3362 91.3846 37.3362C89.2422 37.3362 87.5679 36.6671 86.3616 35.329C85.1619 33.9908 84.5621 32.1847 84.5621 29.9105Z" fill="#0256F5"/>
<path d="M100.578 15.6459C99.6721 15.6459 99.2189 15.2531 99.2189 14.4676V12.1835C99.2189 11.398 99.6721 11.0052 100.578 11.0052H119.214C120.12 11.0052 120.573 11.398 120.573 12.1835V14.4676C120.573 15.2531 120.12 15.6459 119.214 15.6459H112.543V36.003C112.543 36.6677 112.24 37 111.636 37H108.156C107.552 37 107.249 36.6677 107.249 36.003V15.6459H100.578ZM122.326 37C121.852 37 121.697 36.7825 121.862 36.3474L126.707 23.6219C126.911 23.088 127.221 22.821 127.636 22.821H129.02C129.436 22.821 129.746 23.088 129.95 23.6219L134.795 36.3474C134.96 36.7825 134.805 37 134.33 37H132.758C132.323 37 132.02 36.7726 131.848 36.3177L130.84 33.658H125.817L124.808 36.3177C124.637 36.7726 124.334 37 123.899 37H122.326ZM126.736 31.2058H129.92L128.704 28.0615C128.559 27.6924 128.47 27.4254 128.437 27.2606C128.411 27.0892 128.381 26.8387 128.348 26.5092H128.309C128.276 26.8387 128.243 27.0892 128.21 27.2606C128.183 27.4254 128.098 27.6924 127.953 28.0615L126.736 31.2058ZM137.247 37C136.786 37 136.555 36.7528 136.555 36.2584V23.5626C136.555 23.0682 136.786 22.821 137.247 22.821H138.71C139.277 22.821 139.706 23.0518 139.996 23.5132L145.039 31.6112H145.108C145.075 31.2157 145.058 30.8202 145.058 30.4247V23.5626C145.058 23.0682 145.289 22.821 145.75 22.821H147.253C147.715 22.821 147.945 23.0682 147.945 23.5626V36.2584C147.945 36.7528 147.715 37 147.253 37H145.889C145.322 37 144.893 36.7693 144.603 36.3079L139.462 28.0615H139.393C139.426 28.457 139.442 28.8525 139.442 29.248V36.2584C139.442 36.7528 139.211 37 138.75 37H137.247ZM150.605 25.3523C150.111 25.3523 149.864 25.1381 149.864 24.7096V23.4637C149.864 23.0353 150.111 22.821 150.605 22.821H160.77C161.264 22.821 161.511 23.0353 161.511 23.4637V24.7096C161.511 25.1381 161.264 25.3523 160.77 25.3523H157.131V36.4562C157.131 36.8187 156.966 37 156.637 37H154.738C154.409 37 154.244 36.8187 154.244 36.4562V25.3523H150.605ZM164.122 37C163.66 37 163.43 36.7528 163.43 36.2584V23.5626C163.43 23.0682 163.66 22.821 164.122 22.821H168.7C170.737 22.821 172.223 23.1375 173.159 23.7703C174.095 24.3965 174.563 25.4182 174.563 26.8354C174.563 27.8901 174.184 28.7306 173.426 29.3568C172.668 29.983 171.706 30.3983 170.539 30.6027V30.6224C171.172 30.8597 171.65 31.1893 171.973 31.6112C172.296 32.0331 172.559 32.4022 172.764 32.7186L174.939 36.1497C175.301 36.7166 175.176 37 174.563 37H172.843C172.48 37 172.184 36.8055 171.953 36.4166L169.956 33.0845C169.738 32.7285 169.339 32.3396 168.759 31.9177C168.186 31.4893 167.615 31.275 167.049 31.275H166.317V36.2584C166.317 36.7528 166.086 37 165.625 37H164.122ZM166.317 28.8229H168.087C169.405 28.8229 170.341 28.6746 170.895 28.3779C171.455 28.0747 171.735 27.5968 171.735 26.9442C171.735 26.2323 171.465 25.7709 170.924 25.5599C170.391 25.3424 169.603 25.2336 168.561 25.2336H166.317V28.8229ZM177.104 37C176.63 37 176.475 36.7825 176.64 36.3474L181.485 23.6219C181.689 23.088 181.999 22.821 182.414 22.821H183.798C184.214 22.821 184.523 23.088 184.728 23.6219L189.573 36.3474C189.737 36.7825 189.583 37 189.108 37H187.536C187.101 37 186.798 36.7726 186.626 36.3177L185.618 33.658H180.595L179.586 36.3177C179.415 36.7726 179.112 37 178.676 37H177.104ZM181.514 31.2058H184.698L183.482 28.0615C183.337 27.6924 183.248 27.4254 183.215 27.2606C183.189 27.0892 183.159 26.8387 183.126 26.5092H183.086C183.053 26.8387 183.02 27.0892 182.987 27.2606C182.961 27.4254 182.875 27.6924 182.73 28.0615L181.514 31.2058Z" fill="white"/>
<path d="M108.945 49V42.655H111.465C112.581 42.655 113.481 43.348 113.481 44.491C113.481 45.652 112.617 46.327 111.42 46.327H109.53V49H108.945ZM109.53 45.814H111.393C112.239 45.814 112.878 45.346 112.878 44.491C112.878 43.636 112.257 43.168 111.384 43.168H109.53V45.814ZM118.794 49.135C117.012 49.135 115.572 47.803 115.572 45.832C115.572 43.852 117.012 42.52 118.794 42.52C120.567 42.52 122.007 43.852 122.007 45.832C122.007 47.803 120.567 49.135 118.794 49.135ZM116.184 45.832C116.184 47.56 117.336 48.613 118.794 48.613C120.243 48.613 121.386 47.56 121.386 45.832C121.386 44.095 120.243 43.042 118.794 43.042C117.336 43.042 116.184 44.095 116.184 45.832ZM125.708 49L123.962 42.655H124.583L126.14 48.478L127.679 42.655H128.453L129.983 48.478L131.549 42.655H132.161L130.397 49H129.56L128.057 43.276L126.545 49H125.708ZM134.621 49V42.655H138.626V43.168H135.206V45.49H138.32V45.994H135.206V48.487H138.626V49H134.621ZM141.293 49V42.655H143.885C144.956 42.655 145.802 43.276 145.802 44.356C145.802 45.409 144.929 45.994 143.993 46.039L145.964 49H145.244L143.336 46.039H141.878V49H141.293ZM141.878 45.535H143.795C144.641 45.535 145.181 45.103 145.181 44.356C145.181 43.573 144.641 43.168 143.795 43.168H141.878V45.535ZM148.527 49V42.655H152.532V43.168H149.112V45.49H152.226V45.994H149.112V48.487H152.532V49H148.527ZM155.199 49V42.655H157.089C158.934 42.655 160.383 43.78 160.383 45.832C160.383 47.812 159.051 49 157.134 49H155.199ZM155.784 48.487H157.053C158.682 48.487 159.771 47.569 159.771 45.85C159.771 44.095 158.655 43.168 157.044 43.168H155.784V48.487ZM166.618 49V42.655H169.093C170.263 42.655 170.956 43.357 170.956 44.23C170.956 45.076 170.335 45.562 169.849 45.706C170.425 45.823 171.163 46.327 171.163 47.29C171.163 48.28 170.434 49 169.066 49H166.618ZM167.194 48.487H169.039C169.984 48.487 170.551 48.028 170.551 47.245C170.551 46.462 169.984 45.976 169.084 45.976H167.194V48.487ZM167.194 45.472H169.084C169.849 45.472 170.38 45.004 170.38 44.302C170.38 43.636 169.876 43.168 169.084 43.168H167.194V45.472ZM175.2 49V46.255L172.959 42.655H173.643L175.506 45.715L177.378 42.655H178.053L175.785 46.255V49H175.2ZM182.715 49L185.298 42.655H186.009L188.601 49H187.935L187.197 47.119H184.092L183.345 49H182.715ZM184.272 46.624H186.999L185.631 43.15L184.272 46.624ZM190.942 49V42.655H191.527V49H190.942Z" fill="white"/>
</svg>
