<svg width="276" height="62" viewBox="0 0 276 62" fill="none" xmlns="http://www.w3.org/2000/svg">
<path d="M2.92981 7.87818C1.63049 7.87818 0.98083 7.31514 0.98083 6.18906V2.91476C0.98083 1.78868 1.63049 1.22564 2.92981 1.22564H29.6439C30.9432 1.22564 31.5929 1.78868 31.5929 2.91476V6.18906C31.5929 7.31514 30.9432 7.87818 29.6439 7.87818H20.0809V37.061C20.0809 38.0138 19.6478 38.4902 18.7816 38.4902H13.7922C12.9259 38.4902 12.4928 38.0138 12.4928 37.061V7.87818H2.92981ZM34.1399 38.4902C33.4785 38.4902 33.1477 38.1359 33.1477 37.4272V19.2272C33.1477 18.5185 33.4785 18.1641 34.1399 18.1641H40.7027C43.6226 18.1641 45.7535 18.6177 47.0954 19.5248C48.4372 20.4226 49.1081 21.8872 49.1081 23.9189C49.1081 25.4309 48.5648 26.6357 47.4781 27.5334C46.3914 28.4311 45.0117 29.0264 43.3391 29.3194V29.3477C44.2463 29.6879 44.9314 30.1604 45.3944 30.7652C45.8575 31.3699 46.2355 31.8991 46.5284 32.3527L49.6468 37.2712C50.1665 38.0839 49.987 38.4902 49.1081 38.4902H46.6418C46.1221 38.4902 45.6968 38.2115 45.3661 37.6539L42.5029 32.8772C42.191 32.3669 41.6193 31.8094 40.7877 31.2046C39.9656 30.5903 39.1482 30.2832 38.3356 30.2832H37.2867V37.4272C37.2867 38.1359 36.9559 38.4902 36.2945 38.4902H34.1399ZM37.2867 26.768H39.8239C41.7138 26.768 43.0557 26.5554 43.8494 26.1301C44.6526 25.6954 45.0543 25.0103 45.0543 24.0748C45.0543 23.0543 44.6668 22.3928 43.8919 22.0904C43.1265 21.7786 41.9973 21.6227 40.5043 21.6227H37.2867V26.768ZM51.8801 38.4902C51.1997 38.4902 50.9777 38.1784 51.2139 37.5547L58.1594 19.3122C58.4523 18.5468 58.8964 18.1641 59.4918 18.1641H61.4762C62.0715 18.1641 62.5156 18.5468 62.8086 19.3122L69.7541 37.5547C69.9903 38.1784 69.7682 38.4902 69.0879 38.4902H66.8341C66.2104 38.4902 65.7758 38.1642 65.5301 37.5122L64.0843 33.6993H56.8837L55.4379 37.5122C55.1922 38.1642 54.7575 38.4902 54.1338 38.4902H51.8801ZM58.2019 30.184H62.7661L61.0226 25.6765C60.8147 25.1474 60.6871 24.7647 60.6399 24.5284C60.6021 24.2827 60.5596 23.9236 60.5123 23.4512H60.4556C60.4084 23.9236 60.3611 24.2827 60.3139 24.5284C60.2761 24.7647 60.1532 25.1474 59.9453 25.6765L58.2019 30.184ZM73.2693 38.4902C72.6078 38.4902 72.2771 38.1359 72.2771 37.4272V19.2272C72.2771 18.5185 72.6078 18.1641 73.2693 18.1641H78.2162C82.563 18.1641 85.5019 19.0429 87.0327 20.8005C88.573 22.5582 89.3431 25.0576 89.3431 28.2988C89.3431 31.54 88.573 34.0489 87.0327 35.8254C85.5019 37.602 82.563 38.4902 78.2162 38.4902H73.2693ZM76.416 34.975H77.9469C80.8763 34.975 82.7709 34.4316 83.6308 33.3449C84.4907 32.2488 84.9207 30.5667 84.9207 28.2988C84.9207 26.0309 84.4907 24.3583 83.6308 23.2811C82.7709 22.1944 80.8763 21.651 77.9469 21.651H76.416V34.975ZM93.8222 38.4902C93.1608 38.4902 92.83 38.1359 92.83 37.4272V19.2272C92.83 18.5185 93.1608 18.1641 93.8222 18.1641H95.9768C96.6382 18.1641 96.969 18.5185 96.969 19.2272V37.4272C96.969 38.1359 96.6382 38.4902 95.9768 38.4902H93.8222ZM102.497 38.4902C101.836 38.4902 101.505 38.1359 101.505 37.4272V19.2272C101.505 18.5185 101.836 18.1641 102.497 18.1641H104.595C105.407 18.1641 106.022 18.4948 106.437 19.1563L113.666 30.7652H113.766C113.718 30.1982 113.695 29.6312 113.695 29.0642V19.2272C113.695 18.5185 114.026 18.1641 114.687 18.1641H116.842C117.503 18.1641 117.834 18.5185 117.834 19.2272V37.4272C117.834 38.1359 117.503 38.4902 116.842 38.4902H114.885C114.073 38.4902 113.459 38.1595 113.043 37.498L105.672 25.6765H105.573C105.62 26.2435 105.644 26.8105 105.644 27.3775V37.4272C105.644 38.1359 105.313 38.4902 104.652 38.4902H102.497ZM121.321 28.3272C121.321 25.067 122.171 22.4778 123.872 20.5596C125.573 18.6413 127.983 17.6822 131.101 17.6822C132.981 17.6822 134.456 17.9231 135.523 18.4051C136.601 18.887 137.546 19.6335 138.358 20.6446C138.85 21.2588 138.836 21.7361 138.316 22.0762L136.7 23.1251C136.227 23.437 135.722 23.3 135.183 22.7141C134.739 22.2322 134.177 21.8305 133.496 21.5093C132.816 21.188 132.065 21.0273 131.243 21.0273C129.258 21.0273 127.846 21.6557 127.005 22.9125C126.164 24.1599 125.743 25.9648 125.743 28.3272C125.743 30.6896 126.164 32.4992 127.005 33.756C127.846 35.0033 129.258 35.627 131.243 35.627C132.207 35.627 133.038 35.5325 133.737 35.3435C134.437 35.1451 135.098 34.7907 135.722 34.2804V31.7432H132.646C131.937 31.7432 131.583 31.4361 131.583 30.8219V29.1493C131.583 28.5351 131.937 28.2279 132.646 28.2279H138.798C139.506 28.2279 139.861 28.5351 139.861 29.1493V36.3499C138.538 37.3232 137.201 38.0036 135.849 38.391C134.508 38.7784 132.925 38.9722 131.101 38.9722C128.03 38.9722 125.63 38.013 123.9 36.0948C122.181 34.1765 121.321 31.5873 121.321 28.3272Z" fill="#0256F5"/>
<path d="M144.281 7.87818C142.982 7.87818 142.332 7.31514 142.332 6.18906V2.91476C142.332 1.78868 142.982 1.22564 144.281 1.22564H170.995C172.294 1.22564 172.944 1.78868 172.944 2.91476V6.18906C172.944 7.31514 172.294 7.87818 170.995 7.87818H161.432V37.061C161.432 38.0138 160.999 38.4902 160.133 38.4902H155.143C154.277 38.4902 153.844 38.0138 153.844 37.061V7.87818H144.281ZM175.458 38.4902C174.777 38.4902 174.555 38.1784 174.791 37.5547L181.737 19.3122C182.03 18.5468 182.474 18.1641 183.069 18.1641H185.054C185.649 18.1641 186.093 18.5468 186.386 19.3122L193.332 37.5547C193.568 38.1784 193.346 38.4902 192.665 38.4902H190.412C189.788 38.4902 189.353 38.1642 189.108 37.5122L187.662 33.6993H180.461L179.015 37.5122C178.77 38.1642 178.335 38.4902 177.711 38.4902H175.458ZM181.779 30.184H186.344L184.6 25.6765C184.392 25.1474 184.265 24.7647 184.217 24.5284C184.18 24.2827 184.137 23.9236 184.09 23.4512H184.033C183.986 23.9236 183.939 24.2827 183.891 24.5284C183.854 24.7647 183.731 25.1474 183.523 25.6765L181.779 30.184ZM196.847 38.4902C196.185 38.4902 195.855 38.1359 195.855 37.4272V19.2272C195.855 18.5185 196.185 18.1641 196.847 18.1641H198.945C199.757 18.1641 200.371 18.4948 200.787 19.1563L208.016 30.7652H208.115C208.068 30.1982 208.045 29.6312 208.045 29.0642V19.2272C208.045 18.5185 208.375 18.1641 209.037 18.1641H211.191C211.853 18.1641 212.183 18.5185 212.183 19.2272V37.4272C212.183 38.1359 211.853 38.4902 211.191 38.4902H209.235C208.423 38.4902 207.808 38.1595 207.393 37.498L200.022 25.6765H199.923C199.97 26.2435 199.993 26.8105 199.993 27.3775V37.4272C199.993 38.1359 199.663 38.4902 199.001 38.4902H196.847ZM215.996 21.7927C215.288 21.7927 214.933 21.4856 214.933 20.8714V19.0854C214.933 18.4712 215.288 18.1641 215.996 18.1641H230.568C231.276 18.1641 231.631 18.4712 231.631 19.0854V20.8714C231.631 21.4856 231.276 21.7927 230.568 21.7927H225.352V37.7106C225.352 38.2304 225.115 38.4902 224.643 38.4902H221.921C221.449 38.4902 221.213 38.2304 221.213 37.7106V21.7927H215.996ZM235.373 38.4902C234.711 38.4902 234.381 38.1359 234.381 37.4272V19.2272C234.381 18.5185 234.711 18.1641 235.373 18.1641H241.936C244.856 18.1641 246.986 18.6177 248.328 19.5248C249.67 20.4226 250.341 21.8872 250.341 23.9189C250.341 25.4309 249.798 26.6357 248.711 27.5334C247.624 28.4311 246.245 29.0264 244.572 29.3194V29.3477C245.479 29.6879 246.164 30.1604 246.627 30.7652C247.09 31.3699 247.468 31.8991 247.761 32.3527L250.88 37.2712C251.399 38.0839 251.22 38.4902 250.341 38.4902H247.875C247.355 38.4902 246.93 38.2115 246.599 37.6539L243.736 32.8772C243.424 32.3669 242.852 31.8094 242.021 31.2046C241.199 30.5903 240.381 30.2832 239.569 30.2832H238.52V37.4272C238.52 38.1359 238.189 38.4902 237.527 38.4902H235.373ZM238.52 26.768H241.057C242.947 26.768 244.289 26.5554 245.082 26.1301C245.886 25.6954 246.287 25.0103 246.287 24.0748C246.287 23.0543 245.9 22.3928 245.125 22.0904C244.359 21.7786 243.23 21.6227 241.737 21.6227H238.52V26.768ZM253.984 38.4902C253.304 38.4902 253.081 38.1784 253.318 37.5547L260.263 19.3122C260.556 18.5468 261 18.1641 261.596 18.1641H263.58C264.175 18.1641 264.619 18.5468 264.912 19.3122L271.858 37.5547C272.094 38.1784 271.872 38.4902 271.192 38.4902H268.938C268.314 38.4902 267.88 38.1642 267.634 37.5122L266.188 33.6993H258.987L257.542 37.5122C257.296 38.1642 256.861 38.4902 256.238 38.4902H253.984ZM260.306 30.184H264.87L263.126 25.6765C262.919 25.1474 262.791 24.7647 262.744 24.5284C262.706 24.2827 262.663 23.9236 262.616 23.4512H262.559C262.512 23.9236 262.465 24.2827 262.418 24.5284C262.38 24.7647 262.257 25.1474 262.049 25.6765L260.306 30.184Z" fill="black"/>
<path d="M153.353 55.3574V46.2616H156.965C158.565 46.2616 159.855 47.255 159.855 48.8936C159.855 50.5579 158.616 51.5256 156.901 51.5256H154.191V55.3574H153.353ZM154.191 50.7902H156.862C158.075 50.7902 158.991 50.1193 158.991 48.8936C158.991 47.6679 158.1 46.997 156.849 46.997H154.191V50.7902ZM167.472 55.551C164.917 55.551 162.853 53.6415 162.853 50.816C162.853 47.9775 164.917 46.0681 167.472 46.0681C170.014 46.0681 172.078 47.9775 172.078 50.816C172.078 53.6415 170.014 55.551 167.472 55.551ZM163.73 50.816C163.73 53.2931 165.382 54.8026 167.472 54.8026C169.549 54.8026 171.188 53.2931 171.188 50.816C171.188 48.3259 169.549 46.8164 167.472 46.8164C165.382 46.8164 163.73 48.3259 163.73 50.816ZM177.383 55.3574L174.88 46.2616H175.771L178.003 54.6091L180.209 46.2616H181.318L183.512 54.6091L185.757 46.2616H186.634L184.105 55.3574H182.905L180.751 47.1518L178.583 55.3574H177.383ZM190.16 55.3574V46.2616H195.902V46.997H190.999V50.3257H195.463V51.0482H190.999V54.622H195.902V55.3574H190.16ZM199.725 55.3574V46.2616H203.44C204.976 46.2616 206.189 47.1518 206.189 48.7C206.189 50.2096 204.937 51.0482 203.595 51.1127L206.421 55.3574H205.389L202.653 51.1127H200.563V55.3574H199.725ZM200.563 50.3902H203.311C204.524 50.3902 205.298 49.7709 205.298 48.7C205.298 47.5776 204.524 46.997 203.311 46.997H200.563V50.3902ZM210.096 55.3574V46.2616H215.837V46.997H210.934V50.3257H215.398V51.0482H210.934V54.622H215.837V55.3574H210.096ZM219.66 55.3574V46.2616H222.37C225.014 46.2616 227.092 47.8743 227.092 50.816C227.092 53.6544 225.182 55.3574 222.434 55.3574H219.66ZM220.499 54.622H222.318C224.653 54.622 226.214 53.306 226.214 50.8418C226.214 48.3259 224.614 46.997 222.305 46.997H220.499V54.622ZM236.03 55.3574V46.2616H239.578C241.255 46.2616 242.249 47.2679 242.249 48.5194C242.249 49.7322 241.358 50.4289 240.662 50.6353C241.487 50.8031 242.545 51.5256 242.545 52.9061C242.545 54.3253 241.5 55.3574 239.539 55.3574H236.03ZM236.856 54.622H239.501C240.855 54.622 241.668 53.964 241.668 52.8416C241.668 51.7191 240.855 51.0224 239.565 51.0224H236.856V54.622ZM236.856 50.2999H239.565C240.662 50.2999 241.423 49.629 241.423 48.6226C241.423 47.6679 240.7 46.997 239.565 46.997H236.856V50.2999ZM248.332 55.3574V51.4223L245.12 46.2616H246.1L248.771 50.6482L251.455 46.2616H252.422L249.171 51.4223V55.3574H248.332ZM259.105 55.3574L262.808 46.2616H263.827L267.543 55.3574H266.588L265.53 52.6609H261.079L260.008 55.3574H259.105ZM261.337 51.9513H265.246L263.285 46.9712L261.337 51.9513ZM270.899 55.3574V46.2616H271.737V55.3574H270.899Z" fill="black"/>
</svg>
