<svg width="14" height="18" viewBox="0 0 14 18" fill="none" xmlns="http://www.w3.org/2000/svg">
<path fill-rule="evenodd" clip-rule="evenodd" d="M3.47571 7.16667V4.41667C3.47571 3.44421 3.86202 2.51157 4.54965 1.82394C5.23728 1.13631 6.16991 0.75 7.14237 0.75C8.11484 0.75 9.04747 1.13631 9.7351 1.82394C10.4227 2.51157 10.809 3.44421 10.809 4.41667V7.16667H11.7257C12.2119 7.16667 12.6783 7.35982 13.0221 7.70364C13.3659 8.04745 13.559 8.51377 13.559 9V15.4167C13.559 15.9029 13.3659 16.3692 13.0221 16.713C12.6783 17.0568 12.2119 17.25 11.7257 17.25H2.55904C2.07281 17.25 1.6065 17.0568 1.26268 16.713C0.918862 16.3692 0.725708 15.9029 0.725708 15.4167V9C0.725708 8.51377 0.918862 8.04745 1.26268 7.70364C1.6065 7.35982 2.07281 7.16667 2.55904 7.16667H3.47571ZM5.30904 4.41667C5.30904 3.93044 5.5022 3.46412 5.84601 3.1203C6.18983 2.77649 6.65614 2.58333 7.14237 2.58333C7.6286 2.58333 8.09492 2.77649 8.43874 3.1203C8.78255 3.46412 8.97571 3.93044 8.97571 4.41667V7.16667H5.30904V4.41667ZM7.14237 9.91667C7.38549 9.91667 7.61865 10.0132 7.79056 10.1852C7.96246 10.3571 8.05904 10.5902 8.05904 10.8333V13.5833C8.05904 13.8264 7.96246 14.0596 7.79056 14.2315C7.61865 14.4034 7.38549 14.5 7.14237 14.5C6.89926 14.5 6.6661 14.4034 6.49419 14.2315C6.32229 14.0596 6.22571 13.8264 6.22571 13.5833V10.8333C6.22571 10.5902 6.32229 10.3571 6.49419 10.1852C6.6661 10.0132 6.89926 9.91667 7.14237 9.91667Z" fill="url(#paint0_linear_803_1446)"/>
<defs>
<linearGradient id="paint0_linear_803_1446" x1="7.14237" y1="0.75" x2="7.14237" y2="17.25" gradientUnits="userSpaceOnUse">
<stop stop-color="#0256F5"/>
<stop offset="1" stop-color="#77A6FF"/>
</linearGradient>
</defs>
</svg>
