<svg width="18" height="17" viewBox="0 0 18 17" fill="none" xmlns="http://www.w3.org/2000/svg">
<path d="M3.99935 13.9998L2.08268 15.9165C1.81879 16.1804 1.51657 16.2396 1.17602 16.094C0.835461 15.9485 0.665461 15.6879 0.666017 15.3123V2.33317C0.666017 1.87484 0.82935 1.48262 1.15602 1.1565C1.48268 0.830393 1.87491 0.667059 2.33268 0.666504H15.666C16.1243 0.666504 16.5168 0.829837 16.8435 1.1565C17.1702 1.48317 17.3332 1.87539 17.3327 2.33317V12.3332C17.3327 12.7915 17.1696 13.184 16.8435 13.5107C16.5174 13.8373 16.1249 14.0004 15.666 13.9998H3.99935ZM8.99935 11.4998C9.23546 11.4998 9.43352 11.4198 9.59352 11.2598C9.75352 11.0998 9.83324 10.9021 9.83268 10.6665C9.83213 10.4309 9.75213 10.2332 9.59268 10.0732C9.43324 9.91317 9.23546 9.83317 8.99935 9.83317C8.76324 9.83317 8.56546 9.91317 8.40602 10.0732C8.24657 10.2332 8.16657 10.4309 8.16602 10.6665C8.16546 10.9021 8.24546 11.1001 8.40602 11.2607C8.56657 11.4212 8.76435 11.5009 8.99935 11.4998ZM8.99935 8.1665C9.23546 8.1665 9.43352 8.0865 9.59352 7.9265C9.75352 7.7665 9.83324 7.56873 9.83268 7.33317V3.99984C9.83268 3.76373 9.75268 3.56595 9.59268 3.4065C9.43268 3.24706 9.23491 3.16706 8.99935 3.1665C8.76379 3.16595 8.56602 3.24595 8.40602 3.4065C8.24602 3.56706 8.16602 3.76484 8.16602 3.99984V7.33317C8.16602 7.56928 8.24602 7.76734 8.40602 7.92734C8.56602 8.08734 8.76379 8.16706 8.99935 8.1665Z" fill="url(#paint0_linear_248_4764)"/>
<defs>
<linearGradient id="paint0_linear_248_4764" x1="0.666015" y1="8.1665" x2="17.3327" y2="8.1665" gradientUnits="userSpaceOnUse">
<stop stop-color="#0A5BF5"/>
<stop offset="1" stop-color="#6C9DFB"/>
</linearGradient>
</defs>
</svg>
