<svg width="20" height="20" viewBox="0 0 20 20" fill="none" xmlns="http://www.w3.org/2000/svg">
<path d="M9.375 15.8332C9.375 15.6674 9.44085 15.5084 9.55806 15.3912C9.67527 15.274 9.83424 15.2082 10 15.2082H15C15.0553 15.2082 15.1082 15.1862 15.1473 15.1472C15.1864 15.1081 15.2083 15.0551 15.2083 14.9998V4.99984C15.2083 4.94458 15.1864 4.89159 15.1473 4.85252C15.1082 4.81345 15.0553 4.7915 15 4.7915H10C9.83424 4.7915 9.67527 4.72566 9.55806 4.60845C9.44085 4.49124 9.375 4.33226 9.375 4.1665C9.375 4.00074 9.44085 3.84177 9.55806 3.72456C9.67527 3.60735 9.83424 3.5415 10 3.5415H15C15.805 3.5415 16.4583 4.19484 16.4583 4.99984V14.9998C16.4583 15.3866 16.3047 15.7575 16.0312 16.031C15.7577 16.3045 15.3868 16.4582 15 16.4582H10C9.83424 16.4582 9.67527 16.3923 9.55806 16.2751C9.44085 16.1579 9.375 15.9989 9.375 15.8332Z" fill="url(#paint0_linear_248_4760)"/>
<path d="M13.0102 10.9289C13.0102 11.1499 12.9224 11.3618 12.7661 11.5181C12.6098 11.6744 12.3978 11.7622 12.1768 11.7622H8.13015C8.11071 12.0583 8.08682 12.3544 8.05849 12.6505L8.03349 12.9047C8.02418 13.0005 7.9919 13.0926 7.93939 13.1733C7.88688 13.2539 7.81568 13.3207 7.73185 13.368C7.64802 13.4153 7.55402 13.4416 7.45783 13.4448C7.36164 13.448 7.2661 13.428 7.17932 13.3864C5.65555 12.657 4.27638 11.6578 3.10849 10.4372L3.08349 10.4114C2.97603 10.2996 2.91602 10.1506 2.91602 9.99552C2.91602 9.84048 2.97603 9.69146 3.08349 9.57969L3.10849 9.55385C4.27638 8.33324 5.65555 7.33408 7.17932 6.60469C7.2661 6.56309 7.36164 6.54303 7.45783 6.54623C7.55402 6.54943 7.64802 6.57578 7.73185 6.62305C7.81568 6.67032 7.88688 6.73712 7.93939 6.81778C7.9919 6.89843 8.02418 6.99056 8.03349 7.08635L8.05849 7.34052C8.08682 7.63608 8.11071 7.93219 8.13015 8.22885H12.1768C12.3978 8.22885 12.6098 8.31665 12.7661 8.47293C12.9224 8.62921 13.0102 8.84117 13.0102 9.06219V10.9289Z" fill="url(#paint1_linear_248_4760)"/>
<defs>
<linearGradient id="paint0_linear_248_4760" x1="9.37543" y1="9.1665" x2="16.5673" y2="9.1665" gradientUnits="userSpaceOnUse">
<stop stop-color="#0F5EF5"/>
<stop offset="1" stop-color="#6A9BFB"/>
</linearGradient>
<linearGradient id="paint1_linear_248_4760" x1="2.91662" y1="9.55041" x2="13.1654" y2="9.55041" gradientUnits="userSpaceOnUse">
<stop stop-color="#0F5EF5"/>
<stop offset="1" stop-color="#6A9BFB"/>
</linearGradient>
</defs>
</svg>
