<svg width="20" height="20" viewBox="0 0 20 20" fill="none" xmlns="http://www.w3.org/2000/svg">
<mask id="mask0_248_4751" style="mask-type:luminance" maskUnits="userSpaceOnUse" x="1" y="1" width="18" height="18">
<path d="M2.08398 7.91699H17.9173V17.0837C17.9173 17.3047 17.8295 17.5166 17.6732 17.6729C17.517 17.8292 17.305 17.917 17.084 17.917H2.91732C2.6963 17.917 2.48434 17.8292 2.32806 17.6729C2.17178 17.5166 2.08398 17.3047 2.08398 17.0837V7.91699Z" fill="white" stroke="white" stroke-width="2" stroke-linejoin="round"/>
<path d="M2.08398 4.16683C2.08398 3.94582 2.17178 3.73385 2.32806 3.57757C2.48434 3.42129 2.6963 3.3335 2.91732 3.3335H17.084C17.305 3.3335 17.517 3.42129 17.6732 3.57757C17.8295 3.73385 17.9173 3.94582 17.9173 4.16683V7.91683H2.08398V4.16683Z" stroke="white" stroke-width="2" stroke-linejoin="round"/>
<path d="M6.66797 12.917L9.16797 15.417L14.168 10.417" stroke="black" stroke-width="2" stroke-linecap="round" stroke-linejoin="round"/>
<path d="M6.66797 2.0835V5.41683M13.3346 2.0835V5.41683" stroke="white" stroke-width="2" stroke-linecap="round"/>
</mask>
<g mask="url(#mask0_248_4751)">
<path d="M0 0H20V20H0V0Z" fill="url(#paint0_linear_248_4751)"/>
</g>
<defs>
<linearGradient id="paint0_linear_248_4751" x1="1.25" y1="12.0833" x2="18.75" y2="12.0833" gradientUnits="userSpaceOnUse">
<stop stop-color="#0759F5"/>
<stop offset="1" stop-color="#6F9FFC"/>
</linearGradient>
</defs>
</svg>
