<svg width="18" height="18" viewBox="0 0 18 18" fill="none" xmlns="http://www.w3.org/2000/svg">
<path d="M15.666 0.5C16.108 0.5 16.532 0.675595 16.8445 0.988155C17.1571 1.30072 17.3327 1.72464 17.3327 2.16667V13.8333C17.3327 14.2754 17.1571 14.6993 16.8445 15.0118C16.532 15.3244 16.108 15.5 15.666 15.5H2.33268C1.89065 15.5 1.46673 15.3244 1.15417 15.0118C0.84161 14.6993 0.666016 14.2754 0.666016 13.8333V2.16667C0.666016 1.72464 0.84161 1.30072 1.15417 0.988155C1.46673 0.675595 1.89065 0.5 2.33268 0.5H15.666ZM13.166 10.5H4.83268C4.61167 10.5 4.39971 10.5878 4.24343 10.7441C4.08715 10.9004 3.99935 11.1123 3.99935 11.3333C3.99935 11.5543 4.08715 11.7663 4.24343 11.9226C4.39971 12.0789 4.61167 12.1667 4.83268 12.1667H13.166C13.387 12.1667 13.599 12.0789 13.7553 11.9226C13.9116 11.7663 13.9993 11.5543 13.9993 11.3333C13.9993 11.1123 13.9116 10.9004 13.7553 10.7441C13.599 10.5878 13.387 10.5 13.166 10.5ZM7.33268 3.83333H5.66602C5.24554 3.8332 4.84054 3.99201 4.53223 4.27791C4.22391 4.56382 4.03505 4.9557 4.00352 5.375L3.99935 5.5V7.16667C3.99922 7.58715 4.15802 7.99214 4.44393 8.30046C4.72984 8.60877 5.12172 8.79763 5.54102 8.82917L5.66602 8.83333H7.33268C7.75316 8.83347 8.15815 8.67466 8.46647 8.38875C8.77479 8.10284 8.96365 7.71096 8.99518 7.29167L8.99935 7.16667V5.5C8.99948 5.07952 8.84068 4.67453 8.55477 4.36621C8.26886 4.05789 7.87698 3.86904 7.45768 3.8375L7.33268 3.83333ZM13.166 7.16667H10.666C10.4536 7.1669 10.2493 7.24823 10.0949 7.39404C9.94043 7.53985 9.84749 7.73913 9.83504 7.95116C9.82259 8.1632 9.89158 8.37198 10.0279 8.53486C10.1642 8.69774 10.3576 8.80241 10.5685 8.8275L10.666 8.83333H13.166C13.3784 8.8331 13.5827 8.75177 13.7372 8.60596C13.8916 8.46015 13.9845 8.26087 13.997 8.04884C14.0094 7.8368 13.9405 7.62802 13.8041 7.46514C13.6678 7.30226 13.4744 7.19759 13.2635 7.1725L13.166 7.16667ZM7.33268 5.5V7.16667H5.66602V5.5H7.33268ZM13.166 3.83333H10.666C10.445 3.83333 10.233 3.92113 10.0768 4.07741C9.92048 4.23369 9.83268 4.44565 9.83268 4.66667C9.83268 4.88768 9.92048 5.09964 10.0768 5.25592C10.233 5.4122 10.445 5.5 10.666 5.5H13.166C13.387 5.5 13.599 5.4122 13.7553 5.25592C13.9116 5.09964 13.9993 4.88768 13.9993 4.66667C13.9993 4.44565 13.9116 4.23369 13.7553 4.07741C13.599 3.92113 13.387 3.83333 13.166 3.83333Z" fill="url(#paint0_linear_248_4748)"/>
<defs>
<linearGradient id="paint0_linear_248_4748" x1="0.666016" y1="8" x2="17.3327" y2="8" gradientUnits="userSpaceOnUse">
<stop stop-color="#0659F5"/>
<stop offset="1" stop-color="#71A1FD"/>
</linearGradient>
</defs>
</svg>
