<svg width="21" height="18" viewBox="0 0 21 18" fill="none" xmlns="http://www.w3.org/2000/svg">
<g clip-path="url(#clip0_1212_1481)">
<path d="M6.20889 17.4334C6.50275 17.4194 6.79688 17.4104 7.09023 17.391C8.09958 17.3242 9.09167 17.1646 10.0552 16.8432C11.5178 16.355 12.6261 15.4364 13.4294 14.1218C14.3239 12.6576 14.7262 11.073 14.6564 9.36281C14.6551 9.33364 14.6502 9.30472 14.6455 9.26135C14.1016 9.3357 13.5648 9.40902 13.0024 9.4857C13.9898 7.70351 14.9654 5.9425 15.9472 4.1709C17.3689 5.60919 18.7813 7.03794 20.2149 8.48811C19.9789 8.52219 19.7693 8.55291 19.5596 8.58234C19.3685 8.60919 19.1777 8.63914 18.9858 8.65876C18.9044 8.66703 18.8823 8.70343 18.8686 8.7783C18.6513 9.95894 18.3082 11.0998 17.7861 12.1829C17.1126 13.5801 16.1898 14.7866 15.0177 15.8007C13.6455 16.9875 12.0412 17.651 10.2604 17.9087C9.12567 18.0729 8.00094 18.0236 6.89578 17.699C6.66244 17.6306 6.43425 17.5439 6.20374 17.4654C6.20528 17.4548 6.20708 17.444 6.20863 17.4334H6.20889Z" fill="#D7E3FF"/>
<path d="M17.1157 4.84415C16.691 4.42642 16.2818 4.02419 15.862 3.6111C15.7012 3.89871 15.539 4.18916 15.3708 4.48993C13.9731 2.65586 12.154 1.57487 9.862 1.35827C8.1297 1.19458 6.51897 1.59269 5.05324 2.53684C2.13697 4.41584 0.880625 7.95878 1.87272 11.218C2.86481 14.4777 5.95081 16.7793 9.51251 16.6441C9.38759 16.6769 9.26319 16.7122 9.13725 16.7419C8.12121 16.9815 7.08868 17.0685 6.04765 17.0799C5.92325 17.0812 5.79757 17.0721 5.67446 17.0863C5.42849 17.1152 5.21575 17.0435 5.00276 16.925C2.43805 15.4996 0.851522 13.3531 0.346461 10.4551C-0.338372 6.52746 1.71149 2.60783 5.30281 0.883739C9.32346 -1.04664 14.1356 0.272895 16.6143 3.98856C16.7832 4.24183 16.9303 4.51007 17.0869 4.7716C17.0969 4.78813 17.1016 4.80775 17.116 4.84415H17.1157Z" fill="#D7E3FF"/>
<path d="M12.3855 7.19879C12.4481 7.32659 12.5063 7.44535 12.5705 7.57625C12.3729 7.68752 12.1803 7.79724 11.9863 7.90516C11.4357 8.21187 10.885 8.51859 10.3333 8.82349C10.2563 8.86609 10.2136 8.91618 10.2128 9.01325C10.2082 9.55026 9.77678 9.9969 9.24184 10.0266C8.69531 10.0568 8.2124 9.66514 8.13951 9.13279C8.07847 8.68537 8.28529 8.26919 8.68527 8.0549C8.76125 8.01437 8.78546 7.96945 8.78906 7.88709C8.84289 6.68812 8.90007 5.48941 8.95647 4.29044C8.95802 4.25662 8.96188 4.2228 8.96523 4.17969H9.38658C9.39586 4.33898 9.40667 4.5006 9.41414 4.66248C9.46153 5.71093 9.50789 6.75964 9.55631 7.80809C9.5594 7.87521 9.55322 7.96686 9.59237 8.00353C9.67788 8.08408 9.78785 8.14036 9.89242 8.19767C9.91354 8.20929 9.95706 8.18528 9.98797 8.17263C10.7176 7.8734 11.4467 7.57341 12.1761 7.27418C12.2392 7.24836 12.3047 7.22771 12.3853 7.19879H12.3855ZM9.16741 8.4543C8.88951 8.45714 8.65204 8.69699 8.65101 8.97607C8.64998 9.26394 8.88667 9.5012 9.17539 9.50172C9.4587 9.50223 9.70312 9.25594 9.69848 8.97427C9.69359 8.68588 9.45432 8.45146 9.16741 8.4543Z" fill="#D7E3FF"/>
<path d="M8.90419 2.72695C8.90419 2.51654 8.90265 2.30612 8.90496 2.09571C8.90702 1.90957 9.01777 1.79261 9.18286 1.79597C9.34229 1.79933 9.44634 1.91395 9.44711 2.09597C9.44892 2.51679 9.44892 2.93762 9.44763 3.35845C9.44711 3.53917 9.34126 3.65561 9.18209 3.65819C9.01545 3.66103 8.90677 3.54537 8.90496 3.35819C8.9029 3.14778 8.90445 2.93736 8.90471 2.72695H8.90419Z" fill="#D7E3FF"/>
<path d="M2.88985 9.30416C2.67969 9.30416 2.46978 9.30571 2.25962 9.30364C2.0765 9.30183 1.95468 9.18746 1.95725 9.02481C1.95957 8.86732 2.07727 8.75786 2.25627 8.75682C2.67634 8.7545 3.09641 8.75398 3.51648 8.75682C3.70372 8.75811 3.82168 8.8712 3.81859 9.03436C3.81524 9.19753 3.69548 9.30261 3.50721 9.3039C3.30142 9.30545 3.09564 9.30416 2.88985 9.30416Z" fill="#D7E3FF"/>
<path d="M9.44765 15.3248C9.44765 15.5352 9.44894 15.7459 9.44739 15.9563C9.4461 16.1435 9.33716 16.2645 9.17516 16.263C9.00826 16.2614 8.90498 16.1468 8.90447 15.9558C8.90318 15.5391 8.90318 15.1224 8.90447 14.7057C8.90498 14.5175 9.01264 14.3977 9.17593 14.3984C9.3387 14.399 9.44533 14.518 9.44713 14.7062C9.44919 14.9125 9.44765 15.1185 9.44765 15.3248Z" fill="#D7E3FF"/>
<path d="M12.4149 3.91576C12.2029 3.88969 12.0685 3.69037 12.1612 3.5112C12.2714 3.29846 12.3984 3.09373 12.529 2.89261C12.6065 2.77333 12.7657 2.75036 12.8839 2.82135C12.9988 2.89055 13.059 3.0359 12.9952 3.15518C12.878 3.37411 12.7502 3.58814 12.6119 3.79416C12.5728 3.85251 12.4819 3.876 12.4146 3.9155L12.4149 3.91576Z" fill="#D7E3FF"/>
<path d="M5.61139 15.2946C5.40767 15.269 5.26962 15.0733 5.35693 14.9016C5.46742 14.6842 5.59645 14.4754 5.72987 14.2711C5.80842 14.1511 5.96604 14.1299 6.08555 14.2004C6.2017 14.2688 6.25811 14.4224 6.19011 14.5479C6.0737 14.7625 5.94827 14.9734 5.81151 15.175C5.77211 15.2334 5.67964 15.2556 5.61139 15.2943V15.2946Z" fill="#D7E3FF"/>
<path d="M5.88901 3.89453C5.85269 3.86793 5.76023 3.82895 5.71233 3.75924C5.58844 3.57981 5.48027 3.38902 5.37287 3.19848C5.29123 3.05365 5.3363 2.89719 5.47126 2.81948C5.599 2.7459 5.75431 2.78256 5.83956 2.91836C5.95829 3.10709 6.0747 3.29762 6.18056 3.49358C6.28281 3.68282 6.15274 3.89478 5.88901 3.89478V3.89453Z" fill="#D7E3FF"/>
<path d="M3.25555 5.17774C3.28027 5.18755 3.33848 5.20252 3.3887 5.23169C3.5592 5.33006 3.7279 5.43204 3.89557 5.53505C4.05345 5.63187 4.10084 5.78961 4.01739 5.92799C3.93394 6.06663 3.7722 6.09813 3.61432 6.00415C3.43043 5.89469 3.24551 5.78651 3.06522 5.67111C2.95473 5.60037 2.92511 5.49064 2.95988 5.3662C2.99207 5.25054 3.0969 5.17748 3.25555 5.17774Z" fill="#D7E3FF"/>
<path d="M4.05656 12.331C4.02746 12.3677 3.98187 12.4594 3.90847 12.5102C3.73643 12.6298 3.55228 12.7323 3.37044 12.8368C3.22441 12.9205 3.06833 12.8833 2.98875 12.7532C2.90402 12.615 2.94342 12.4612 3.09357 12.3672C3.27154 12.2559 3.45028 12.1454 3.63263 12.0419C3.83121 11.9293 4.06094 12.0566 4.05682 12.3308L4.05656 12.331Z" fill="#D7E3FF"/>
<path d="M12.3946 14.9478C12.308 14.8032 12.2303 14.685 12.1641 14.5603C12.0953 14.4304 12.1453 14.2722 12.2668 14.2004C12.3905 14.1276 12.5434 14.1606 12.6313 14.2822C12.664 14.3274 12.6972 14.3744 12.717 14.4255C12.7296 14.4586 12.7335 14.5123 12.7152 14.5373C12.6168 14.6723 12.5102 14.8012 12.3946 14.9476V14.9478Z" fill="#D7E3FF"/>
<path d="M14.9348 5.27907C14.7926 5.53544 14.6502 5.79207 14.507 6.05024C14.3818 6.02029 14.3161 5.94207 14.2981 5.82666C14.2798 5.70919 14.3272 5.61548 14.4277 5.553C14.5876 5.45386 14.7493 5.35807 14.9103 5.26074C14.9185 5.26694 14.9265 5.27288 14.9348 5.27907Z" fill="#D7E3FF"/>
</g>
<defs>
<clipPath id="clip0_1212_1481">
<rect width="20" height="18" fill="white" transform="translate(0.215149)"/>
</clipPath>
</defs>
</svg>
