<svg width="17" height="18" viewBox="0 0 17 18" fill="none" xmlns="http://www.w3.org/2000/svg">
<g clip-path="url(#clip0_1212_1503)">
<path d="M5.25401 9.18414C5.41348 8.45537 5.66644 8.20049 6.32179 8.09899C6.32179 7.84149 6.34702 7.57942 6.31532 7.32421C6.27845 7.02722 6.00608 6.83043 5.68358 6.82618C5.32776 6.82161 4.97195 6.8252 4.61613 6.82488C4.07173 6.82488 3.52732 6.82618 2.9826 6.82455C2.32013 6.82259 1.86792 6.36471 1.86468 5.69469C1.86339 5.44437 1.86306 5.19438 1.86468 4.94406C1.86598 4.76979 1.94231 4.67677 2.07817 4.67579C2.21371 4.67449 2.29134 4.76783 2.29263 4.94145C2.29457 5.18067 2.29263 5.42022 2.29263 5.65944C2.29328 6.13299 2.54268 6.38821 3.00783 6.38853C3.8702 6.38919 4.7329 6.38853 5.59527 6.38853C6.32567 6.38853 6.76495 6.82977 6.76559 7.56441C6.76559 7.73803 6.76559 7.91166 6.76559 8.09768H7.82561C7.82561 8.03469 7.82561 7.97203 7.82561 7.90905C7.82561 6.94074 7.82561 5.97275 7.82626 5.00444C7.82626 4.95026 7.82367 4.89446 7.83564 4.84224C7.86054 4.73389 7.93753 4.65752 8.04363 4.6833C8.11867 4.70158 8.18984 4.77305 8.24192 4.83767C8.26941 4.87194 8.25615 4.94243 8.25615 4.99628C8.2568 5.96459 8.2568 6.93258 8.2568 7.90089C8.2568 7.96453 8.2568 8.02849 8.2568 8.10095H9.31455C9.31455 7.89697 9.31163 7.69332 9.31519 7.48935C9.3236 6.97337 9.62475 6.56216 10.0967 6.4339C10.2148 6.40191 10.3412 6.39082 10.4638 6.39049C11.3317 6.3869 12.1996 6.38919 13.0675 6.38853C13.5362 6.38853 13.7878 6.13593 13.7894 5.6663C13.7901 5.42153 13.7878 5.17676 13.7904 4.93199C13.792 4.76587 13.8655 4.67906 13.9978 4.67645C14.1356 4.67351 14.2158 4.76587 14.2174 4.93786C14.2197 5.19895 14.219 5.46004 14.2174 5.72113C14.2132 6.35786 13.7558 6.82194 13.1231 6.82422C12.2445 6.82749 11.3657 6.82488 10.4871 6.8252C9.98413 6.8252 9.74929 7.06508 9.74897 7.57714C9.74897 7.74978 9.74897 7.92275 9.74897 8.0967C10.3988 8.1747 10.7495 8.53762 10.8239 9.18414C11.0231 9.18414 11.2166 9.18185 11.41 9.18479C11.5666 9.18707 11.6613 9.27095 11.6617 9.39921C11.6617 9.52812 11.5672 9.61297 11.4123 9.61526C11.2195 9.61787 11.0267 9.61591 10.8232 9.61591V10.688C11.0128 10.688 11.1997 10.687 11.3867 10.688C11.5575 10.689 11.6568 10.7647 11.662 10.8949C11.6672 11.0336 11.5666 11.1165 11.387 11.1178C11.2046 11.1191 11.0222 11.1178 10.8261 11.1178V12.1909C11.0066 12.1909 11.1929 12.1899 11.3789 12.1909C11.5601 12.1919 11.6613 12.2705 11.662 12.4073C11.6626 12.5443 11.5633 12.6201 11.3786 12.6214C11.1962 12.6227 11.0137 12.6214 10.8355 12.6214C10.623 13.3886 10.3794 13.6344 9.74962 13.7032C9.74962 13.8592 9.74962 14.0195 9.74962 14.1801C9.74962 14.2398 9.75414 14.3008 9.74509 14.3592C9.72568 14.4829 9.65063 14.5573 9.5248 14.5537C9.398 14.5502 9.32619 14.4679 9.31875 14.3445C9.31002 14.1983 9.31584 14.0511 9.31552 13.9043C9.31552 13.8406 9.31552 13.7767 9.31552 13.7078C9.27185 13.7023 9.24597 13.6964 9.22042 13.6961C8.90859 13.6954 8.59676 13.6957 8.27135 13.6957V17.2351C8.39718 17.1098 8.50554 17.0014 8.61423 16.8934C8.66016 16.8477 8.70351 16.7981 8.75365 16.7573C8.85198 16.6767 8.95517 16.679 9.0438 16.7687C9.13308 16.8595 9.13761 16.9701 9.04995 17.0608C8.76432 17.3572 8.47481 17.6496 8.1811 17.9378C8.09053 18.0265 7.9799 18.0168 7.89063 17.9286C7.60597 17.6467 7.3239 17.3621 7.04443 17.0752C6.95224 16.9802 6.94641 16.8709 7.0386 16.7694C7.12529 16.6738 7.24692 16.6735 7.35302 16.7782C7.4989 16.9225 7.63573 17.0759 7.81041 17.2619V13.7065H6.76592C6.76592 13.9102 6.76656 14.1096 6.76592 14.309C6.76527 14.4473 6.70478 14.541 6.56148 14.555C6.43468 14.5674 6.33958 14.4663 6.3357 14.3139C6.33085 14.1138 6.33441 13.9137 6.33441 13.7039C6.03681 13.6846 5.78677 13.5861 5.58363 13.3815C5.37984 13.1762 5.28571 12.9213 5.26436 12.6217C5.06608 12.6217 4.87879 12.623 4.6915 12.6214C4.51714 12.6197 4.42302 12.545 4.42075 12.4112C4.41816 12.2728 4.51909 12.1922 4.69991 12.1909C4.88234 12.1896 5.06478 12.1909 5.25886 12.1909V11.1178C5.07319 11.1178 4.88687 11.1188 4.70055 11.1178C4.51812 11.1168 4.41881 11.0385 4.42043 10.9001C4.42204 10.7654 4.52458 10.6887 4.70702 10.688C4.88881 10.6874 5.0706 10.688 5.26145 10.688V9.61591C5.06672 9.61591 4.87976 9.61689 4.69247 9.61591C4.5207 9.61461 4.42431 9.53889 4.42107 9.40606C4.41752 9.26801 4.51876 9.18609 4.69861 9.18479C4.88137 9.18348 5.06446 9.18479 5.25337 9.18479L5.25401 9.18414ZM5.70331 10.8965C5.70331 11.4566 5.70105 12.0169 5.70396 12.577C5.70623 13.0052 5.96824 13.2656 6.39328 13.2659C7.48758 13.2672 8.58188 13.2669 9.67619 13.2659C10.1226 13.2656 10.3807 13.0094 10.3817 12.5597C10.3839 11.4556 10.3839 10.3515 10.3817 9.24745C10.3807 8.7974 10.1226 8.54219 9.67554 8.54186C8.58674 8.54121 7.49761 8.54121 6.4088 8.54186C5.96274 8.54186 5.70525 8.80001 5.70396 9.24843C5.70234 9.79769 5.70364 10.347 5.70331 10.8965Z" fill="white"/>
<path d="M13.0807 2.69305C12.8025 2.56381 12.5603 2.44893 12.3154 2.33895C12.2138 2.29326 12.1197 2.22701 12.1482 2.11246C12.1682 2.03184 12.2413 1.94144 12.3151 1.90195C12.556 1.77369 12.8084 1.66697 13.0801 1.54067C12.8074 1.4147 12.5638 1.30047 12.3186 1.18951C12.219 1.14447 12.1177 1.08083 12.1491 0.965299C12.1721 0.880445 12.2478 0.782864 12.3257 0.745006C12.8304 0.500235 13.3401 0.265256 13.8541 0.0413729C13.9399 0.00416783 14.0692 0.00449419 14.1553 0.0420256C14.6693 0.265909 15.1791 0.500888 15.684 0.745332C15.7623 0.78319 15.8548 0.889583 15.8551 0.964646C15.8555 1.03906 15.7629 1.14251 15.685 1.18396C15.4479 1.31124 15.1985 1.41502 14.9258 1.541C15.1826 1.65979 15.4152 1.76912 15.6494 1.87519C15.7607 1.92578 15.8716 1.97571 15.8681 2.1242C15.8645 2.26389 15.7568 2.31023 15.6513 2.3582C15.4217 2.46297 15.193 2.56936 14.929 2.69109C15.1506 2.79487 15.3421 2.88495 15.5342 2.9747C15.5928 3.00211 15.663 3.01615 15.7086 3.05792C15.7717 3.11536 15.8603 3.19565 15.8571 3.2619C15.8535 3.33761 15.7762 3.44139 15.7041 3.47697C15.2687 3.69139 14.8168 3.87317 14.3875 4.09901C14.1168 4.24163 13.8891 4.24032 13.6193 4.09836C13.1994 3.87774 12.7605 3.69465 12.3286 3.4972C12.2248 3.44988 12.1375 3.39309 12.141 3.26092C12.1446 3.13723 12.228 3.08534 12.327 3.04095C12.5674 2.93293 12.8058 2.82 13.0804 2.69272L13.0807 2.69305ZM12.8698 0.965952C13.2496 1.14055 13.5918 1.29851 13.9353 1.45419C13.9667 1.46855 14.0126 1.48095 14.0401 1.46855C14.396 1.3083 14.7498 1.14349 15.1367 0.964973C14.7521 0.788085 14.4015 0.626211 14.0498 0.466947C14.0243 0.455524 13.9851 0.454219 13.9599 0.465641C13.608 0.625232 13.257 0.787759 12.8698 0.966278V0.965952ZM12.8724 3.26875C13.2528 3.44466 13.5992 3.60588 13.9473 3.76351C13.9777 3.77722 14.0243 3.77918 14.054 3.7658C14.407 3.60621 14.7579 3.4427 15.1348 3.26875C14.919 3.16856 14.7275 3.08534 14.5418 2.99069C14.4461 2.94174 14.36 2.93293 14.2711 2.9933C14.0893 3.11667 13.9124 3.1059 13.7273 2.9933C13.6753 2.96165 13.5876 2.945 13.5342 2.96654C13.3198 3.05303 13.1124 3.15746 12.8724 3.26908V3.26875ZM12.8711 2.1167C13.2457 2.28967 13.5912 2.45089 13.9389 2.60754C13.9735 2.62321 14.0259 2.62647 14.0595 2.61146C14.4105 2.45383 14.7595 2.29097 15.1357 2.11735C14.9332 2.02369 14.754 1.95058 14.5845 1.85887C14.459 1.79099 14.3474 1.77924 14.2274 1.86181C14.078 1.96461 13.9292 1.9558 13.7746 1.86246C13.7141 1.82591 13.6232 1.78251 13.5692 1.80307C13.3398 1.89151 13.1195 2.00247 12.8708 2.11702L12.8711 2.1167Z" fill="white"/>
<path d="M3.00218 2.69256C3.27195 2.81755 3.50841 2.92917 3.74713 3.03654C3.85064 3.08321 3.94121 3.1351 3.94218 3.26728C3.94315 3.40011 3.85064 3.45298 3.74875 3.49965C3.24381 3.73104 2.74146 3.96895 2.23232 4.19055C2.14595 4.22808 2.01656 4.22972 1.93084 4.19251C1.41684 3.96863 0.907054 3.73365 0.402439 3.4892C0.323836 3.45102 0.242968 3.35442 0.222913 3.27054C0.193154 3.14718 0.303457 3.0855 0.407292 3.0385C0.646013 2.93048 0.883118 2.81886 1.15613 2.69256C0.890881 2.56985 0.659276 2.46117 0.426376 2.3551C0.320278 2.30713 0.215473 2.25817 0.21515 2.11816C0.214826 1.97816 0.318337 1.92757 0.424435 1.87927C0.658952 1.77255 0.892822 1.66387 1.15645 1.54246C0.892175 1.41943 0.657011 1.30749 0.41926 1.20077C0.310574 1.15181 0.212885 1.09764 0.215797 0.958606C0.218384 0.827409 0.315749 0.778455 0.417319 0.731786C0.912553 0.504965 1.40811 0.278471 1.90043 0.0454499C2.02271 -0.0123159 2.12751 -0.0168849 2.25205 0.0425127C2.7489 0.278798 3.24996 0.505944 3.75004 0.735049C3.85291 0.782045 3.94315 0.835895 3.94154 0.968397C3.9396 1.1009 3.84773 1.15149 3.74454 1.19783C3.50873 1.30422 3.27486 1.41453 3.00929 1.5379C3.13803 1.60056 3.24413 1.6531 3.3512 1.70336C3.49773 1.77222 3.65203 1.8277 3.78886 1.9119C3.85646 1.95368 3.93216 2.04734 3.93216 2.11719C3.93216 2.18768 3.85711 2.28657 3.78854 2.32279C3.54302 2.45268 3.28651 2.56104 3.00218 2.69256ZM3.21276 0.966112C2.82912 0.789225 2.47977 0.625066 2.12654 0.469392C2.0874 0.452095 2.02335 0.472003 1.97839 0.491911C1.7759 0.580355 1.57599 0.674673 1.37544 0.767685C1.24185 0.829694 1.10858 0.892355 0.948782 0.967092C1.32466 1.14039 1.66592 1.30031 2.01041 1.45337C2.05182 1.47197 2.11651 1.46805 2.15889 1.44913C2.49821 1.29769 2.83494 1.14006 3.21243 0.966112H3.21276ZM0.947812 3.26858C1.32789 3.44384 1.68371 3.60833 2.0405 3.77053C2.06217 3.78032 2.09581 3.78097 2.11716 3.77118C2.47427 3.60898 2.83041 3.44449 3.21146 3.26891C2.9983 3.1697 2.81068 3.08909 2.62921 2.99575C2.52926 2.94451 2.43934 2.9295 2.34327 2.99444C2.16794 3.11324 1.99521 3.10769 1.81471 2.99803C1.76102 2.9654 1.67465 2.94092 1.62225 2.96181C1.40261 3.0496 1.19042 3.15599 0.947812 3.26858ZM3.21179 2.11751C3.00865 2.02352 2.83365 1.95401 2.66965 1.8636C2.53897 1.79148 2.42284 1.77842 2.29733 1.86458C2.15307 1.96347 2.00847 1.95498 1.85903 1.86687C1.79692 1.83031 1.707 1.77908 1.65427 1.79931C1.42234 1.88841 1.19915 2.001 0.946194 2.11751C1.32595 2.29244 1.67206 2.45334 2.02012 2.60966C2.05408 2.625 2.10681 2.625 2.14077 2.60966C2.48883 2.45301 2.83462 2.29179 3.21179 2.11751Z" fill="white"/>
<path d="M7.06957 2.69339C6.80109 2.56905 6.56819 2.46037 6.33464 2.35365C6.22822 2.30502 6.1273 2.25574 6.12924 2.11312C6.13118 1.9705 6.23663 1.92547 6.34176 1.87749C6.57563 1.77044 6.80853 1.66144 7.0686 1.54101C6.80109 1.41732 6.56366 1.30538 6.32462 1.19703C6.22175 1.15036 6.13021 1.09847 6.12956 0.965967C6.12859 0.832812 6.2211 0.781573 6.32364 0.734577C6.82858 0.503188 7.33029 0.264618 7.83943 0.0426933C7.92547 0.00516187 8.05486 0.00353007 8.14026 0.0407351C8.65425 0.264618 9.16372 0.499598 9.66834 0.744042C9.74694 0.782226 9.82716 0.878176 9.84851 0.96205C9.87956 1.08607 9.76958 1.14742 9.66575 1.19442C9.42541 1.3031 9.18669 1.41569 8.91594 1.54134C9.1731 1.66079 9.40471 1.76979 9.63728 1.87586C9.74791 1.92612 9.85983 1.97377 9.85595 2.12389C9.85239 2.26423 9.74565 2.31057 9.64052 2.35855C9.41085 2.46331 9.18184 2.57003 8.91465 2.69307C9.14658 2.80044 9.35004 2.89019 9.5493 2.98842C9.67901 3.05206 9.86016 3.07328 9.85466 3.27627C9.84948 3.46687 9.67707 3.48873 9.55059 3.54813C9.09191 3.76353 8.62967 3.97207 8.17164 4.1891C8.04969 4.24687 7.94294 4.25046 7.81873 4.19171C7.32155 3.95641 6.82082 3.72893 6.32106 3.4995C6.21884 3.45251 6.12795 3.39931 6.13021 3.26583C6.13215 3.13235 6.22531 3.08274 6.32753 3.0364C6.56301 2.92968 6.79721 2.82002 7.07054 2.69372L7.06957 2.69339ZM6.86028 0.96564C7.08089 1.06779 7.28435 1.13274 7.45515 1.24729C7.82487 1.495 8.17067 1.48129 8.53748 1.24272C8.70827 1.13143 8.90753 1.06518 9.12296 0.964988C8.74127 0.789079 8.39483 0.628836 8.0471 0.470878C8.02057 0.458803 7.98143 0.451296 7.95717 0.462393C7.60071 0.623615 7.24586 0.788427 6.86061 0.965967L6.86028 0.96564ZM6.86028 2.11737C7.23519 2.29066 7.5813 2.45189 7.92903 2.60952C7.96009 2.62355 8.00634 2.63073 8.03513 2.61768C8.38998 2.45743 8.74289 2.29295 9.12393 2.11639C8.88004 2.00412 8.66655 1.90262 8.44982 1.80961C8.41262 1.79362 8.34987 1.79688 8.31687 1.81842C8.10015 1.96006 7.88957 1.96463 7.6709 1.82103C7.63467 1.79721 7.56513 1.7959 7.5234 1.81352C7.3112 1.90425 7.10321 2.00477 6.86028 2.11704V2.11737ZM6.86093 3.26811C7.13976 3.39768 7.4063 3.50015 7.65117 3.64082C7.89022 3.77756 8.09756 3.77626 8.33596 3.63918C8.57889 3.4995 8.84349 3.39735 9.12167 3.26811C8.90753 3.16825 8.71992 3.08731 8.53845 2.99397C8.43818 2.9424 8.34793 2.93163 8.25283 2.99528C8.07751 3.11276 7.90607 3.10656 7.72525 2.99789C7.66896 2.96394 7.57548 2.94665 7.51758 2.96949C7.30312 3.05402 7.09642 3.15878 6.86061 3.26779L6.86093 3.26811Z" fill="white"/>
<path d="M8.02728 12.1938C7.69863 12.1938 7.36998 12.1948 7.04134 12.1935C6.83755 12.1925 6.76315 12.1243 6.76218 11.9236C6.75959 11.2441 6.75927 10.565 6.76186 9.88547C6.7625 9.68345 6.83723 9.61361 7.03972 9.61328C7.70769 9.61198 8.37565 9.61198 9.04362 9.61328C9.25291 9.61361 9.32148 9.68443 9.32181 9.90015C9.3231 10.5685 9.3231 11.2373 9.32181 11.9056C9.32148 12.1289 9.2542 12.1932 9.02939 12.1938C8.69524 12.1948 8.36142 12.1938 8.02728 12.1938Z" fill="white"/>
</g>
<defs>
<clipPath id="clip0_1212_1503">
<rect width="16" height="18" fill="white" transform="translate(0.215149)"/>
</clipPath>
</defs>
</svg>
