<svg width="22" height="18" viewBox="0 0 22 18" fill="none" xmlns="http://www.w3.org/2000/svg">
<g clip-path="url(#clip0_1212_1457)">
<path d="M0.215128 10.8548C0.293226 11.0373 0.43709 11.0977 0.634388 11.095C1.26191 11.0883 1.8908 11.0936 2.51832 11.091C2.56079 11.091 2.61286 11.0762 2.64163 11.0494C2.84715 10.8561 3.09103 10.7675 3.37191 10.7675C3.48289 10.7675 3.59524 10.7675 3.69526 10.7675C3.61168 10.0025 3.72815 9.26842 3.93777 8.54638C4.26798 7.40426 4.8681 6.41112 5.72443 5.57367C6.78765 4.53355 8.06187 3.87191 9.54846 3.63838C11.5804 3.31897 13.4259 3.77259 15.0509 5.00865C16.4361 6.06353 17.2952 7.45258 17.6405 9.14092C17.761 9.73546 17.7953 10.3354 17.7501 10.9406C17.7473 10.9809 17.746 11.0198 17.7446 11.0601C17.7446 11.0655 17.7473 11.0722 17.7528 11.0936C17.7871 11.0936 17.8254 11.0936 17.8652 11.0936C18.8434 11.0936 19.8217 11.091 20.8 11.0963C20.9973 11.0963 21.1411 11.0386 21.2192 10.8561C21.2192 10.4333 21.2192 10.0106 21.2192 9.58917C21.2124 9.56904 21.2042 9.55025 21.1987 9.53012C21.0973 9.06308 20.8123 8.83761 20.3287 8.83627C20.104 8.83627 19.8793 8.83627 19.6532 8.83627C19.6039 8.83627 19.5792 8.82687 19.5614 8.77319C19.46 8.4739 19.3559 8.17596 19.2449 7.8807C19.1777 7.70087 19.0969 7.52505 19.0202 7.34119C19.0544 7.32106 19.0818 7.30361 19.112 7.2875C19.3613 7.14793 19.6121 7.01103 19.8614 6.87012C20.3136 6.61378 20.478 6.02729 20.219 5.58172C20.0519 5.29451 19.8793 5.00999 19.708 4.72547C19.5737 4.50134 19.3764 4.35237 19.1229 4.28124C18.8489 4.20474 18.5845 4.23695 18.3351 4.37519C18.0611 4.52684 17.7871 4.67984 17.5144 4.83149C17.5007 4.8221 17.4925 4.81807 17.487 4.81271C17.1595 4.44095 16.806 4.09603 16.421 3.78333C16.3745 3.74575 16.3854 3.71757 16.4114 3.67596C16.5663 3.42097 16.7252 3.16865 16.8691 2.90695C17.1239 2.44125 16.954 1.88294 16.4854 1.61855C16.2046 1.46018 15.9209 1.30182 15.6373 1.14748C15.1194 0.864301 14.5261 1.02803 14.2316 1.53132C14.0959 1.76215 13.9548 1.98897 13.8219 2.22115C13.7863 2.28422 13.752 2.28557 13.6876 2.26543C13.4383 2.18625 13.1875 2.10841 12.9341 2.04399C12.6998 1.9836 12.4614 1.93797 12.2161 1.88428C12.2161 1.85207 12.2161 1.81852 12.2161 1.78497C12.2161 1.50582 12.2188 1.228 12.2161 0.948852C12.212 0.675067 12.101 0.445571 11.8982 0.25768C11.7448 0.116761 11.5626 0.049657 11.3707 0C10.9337 0 10.4966 0 10.0582 0C10.0403 0.00536833 10.0239 0.0134208 10.0061 0.0174471C9.5238 0.127498 9.21826 0.504623 9.21826 0.991798C9.21826 1.25753 9.21826 1.5246 9.21826 1.79034C9.21826 1.82255 9.21826 1.85476 9.21826 1.88831C8.69898 1.97823 8.20299 2.09902 7.72071 2.27214C7.66316 2.29228 7.64261 2.26409 7.61932 2.22517C7.4823 1.99568 7.34255 1.76752 7.20828 1.53534C6.90959 1.02267 6.31221 0.858932 5.78882 1.14882C5.51754 1.29914 5.24488 1.45079 4.97359 1.60245C4.45843 1.89099 4.30223 2.46675 4.60229 2.97003C4.74204 3.20489 4.8818 3.4411 5.02566 3.67328C5.0558 3.72293 5.05169 3.74843 5.00648 3.78735C4.80233 3.96719 4.59681 4.14703 4.40088 4.33492C4.23646 4.49329 4.08301 4.66239 3.92133 4.82881C3.89119 4.81271 3.86105 4.7966 3.83091 4.7805C3.58154 4.64226 3.33218 4.5 3.08007 4.36445C2.59505 4.10409 2.00726 4.26111 1.72501 4.72413C1.55512 5.00194 1.38796 5.28243 1.22355 5.56427C0.979662 5.98166 1.07968 6.49836 1.46743 6.79362C1.59211 6.88891 1.73734 6.95869 1.87436 7.03653C2.0511 7.13719 2.23059 7.2365 2.41145 7.33716C2.39912 7.37071 2.38953 7.39621 2.37994 7.42171C2.20867 7.87534 2.03877 8.32762 1.86477 8.7799C1.85518 8.80406 1.81407 8.8309 1.78804 8.8309C1.59485 8.83492 1.40029 8.8309 1.2071 8.83358C0.926228 8.83895 0.685085 8.93961 0.486416 9.13555C0.342552 9.27781 0.272675 9.45497 0.215128 9.64017V10.8521V10.8548Z" fill="#D7E3FF"/>
<path d="M9.49641 18.0003C9.67863 17.9197 9.73755 17.7788 9.73755 17.5869C9.73344 15.6556 9.73481 13.7244 9.73481 11.7945C9.73481 11.5301 9.61013 11.408 9.33884 11.408C7.36174 11.408 5.38327 11.4106 3.40617 11.4053C3.1664 11.4053 2.99513 11.5301 3.00061 11.8039C3.04035 13.515 3.67198 14.9792 4.90647 16.1898C5.80253 17.0675 6.88083 17.6258 8.12216 17.8768C8.3729 17.9278 8.62911 17.9493 8.88122 17.9842C8.91136 17.9882 8.9415 17.9962 8.97165 18.0016H9.49641V18.0003Z" fill="#D7E3FF"/>
<path d="M10.3829 10.7693C10.3829 10.8189 10.3829 10.8551 10.3829 10.8914C10.3829 12.7032 10.3829 14.515 10.3829 16.3268C10.3829 16.5979 10.5007 16.7174 10.7734 16.7133C12.4819 16.6865 13.9548 16.092 15.1811 14.9284C16.1717 13.9889 16.7992 12.8468 17.0171 11.5114C17.3514 9.47281 16.8033 7.67576 15.3743 6.15652C14.4138 5.13654 13.2204 4.49771 11.8215 4.27358C9.73481 3.93806 7.89335 4.47489 6.33688 5.87871C5.29147 6.82085 4.65436 7.99652 4.41185 9.36812C4.35019 9.71572 4.33923 10.0727 4.31731 10.427C4.30498 10.635 4.4461 10.7666 4.65847 10.7679C5.41752 10.7679 6.17658 10.7679 6.937 10.7679C8.04269 10.7679 9.14976 10.7679 10.2555 10.7679C10.2952 10.7679 10.3349 10.7679 10.3829 10.7679V10.7693ZM4.99826 10.121C5.038 8.46759 6.08752 6.35247 8.30576 5.34725C10.6048 4.30445 13.3273 4.85873 14.9865 6.69738C16.6937 8.58837 16.9403 11.2779 15.5921 13.4038C14.9235 14.4586 13.9918 15.2156 12.8149 15.6772C12.2504 15.8987 11.6626 16.0275 11.046 16.0571V15.9229C11.046 14.1231 11.046 12.3234 11.046 10.5237C11.046 10.2378 10.9282 10.121 10.6377 10.121C8.80038 10.121 6.96303 10.121 5.12568 10.121C5.08321 10.121 5.04074 10.121 4.99689 10.121H4.99826Z" fill="#D7E3FF"/>
</g>
<defs>
<clipPath id="clip0_1212_1457">
<rect width="21" height="18" fill="white" transform="matrix(-1 0 0 1 21.2151 0)"/>
</clipPath>
</defs>
</svg>
