<svg width="20" height="18" viewBox="0 0 20 18" fill="none" xmlns="http://www.w3.org/2000/svg">
<g clip-path="url(#clip0_1212_1469)">
<path d="M13.2234 3.82318C13.3627 4.04676 13.4699 4.17046 13.524 4.31341C13.8512 5.16833 14.1646 6.02874 14.4863 6.88549C14.8116 7.75049 15.4128 8.34334 16.2733 8.67046C17.1147 8.99026 17.9605 9.2963 18.7982 9.62526C18.9531 9.68574 19.0768 9.8241 19.2143 9.92673C19.0704 10.0431 18.943 10.2025 18.778 10.2676C17.9697 10.5874 17.155 10.8889 16.3366 11.183C15.3963 11.5211 14.7786 12.1653 14.4413 13.0981C14.1453 13.9154 13.8466 14.7319 13.5304 15.541C13.4708 15.694 13.326 15.8149 13.2206 15.9506C13.1125 15.8195 12.9622 15.705 12.9035 15.5556C12.5727 14.719 12.2593 13.8751 11.9486 13.0303C11.6168 12.1277 10.9964 11.5193 10.0992 11.1876C9.25512 10.8751 8.40739 10.5718 7.56883 10.2456C7.43411 10.1934 7.33697 10.044 7.22241 9.93955C7.33789 9.83693 7.43686 9.69215 7.57158 9.639C8.43763 9.29997 9.31285 8.98659 10.1826 8.65489C11.0285 8.33235 11.615 7.74682 11.9321 6.89465C12.2565 6.02233 12.58 5.15 12.9145 4.28225C12.9677 4.14481 13.0813 4.02935 13.2225 3.82227L13.2234 3.82318Z" fill="#D7E3FF"/>
<path d="M4.95876 8.7975C4.83596 8.54368 4.75714 8.40531 4.70124 8.25871C4.50053 7.73183 4.29708 7.20495 4.11287 6.67257C3.87093 5.97343 3.3962 5.5171 2.71069 5.26604C2.15257 5.06078 1.59261 4.86103 1.03816 4.64478C0.922683 4.59988 0.831037 4.49359 0.728394 4.41478C0.835619 4.32498 0.929098 4.20128 1.05282 4.1518C1.60453 3.93006 2.16173 3.72114 2.72352 3.52505C3.38704 3.29322 3.83793 2.85339 4.08538 2.20006C4.29525 1.64386 4.49687 1.08491 4.7104 0.529627C4.76631 0.383934 4.85245 0.249236 4.98076 0C5.10356 0.229994 5.18421 0.349114 5.2337 0.47923C5.45273 1.04826 5.66168 1.62187 5.87614 2.19273C6.11533 2.82957 6.54973 3.27214 7.19034 3.50855C7.77687 3.7248 8.36523 3.93647 8.94718 4.16646C9.05899 4.21045 9.14331 4.3259 9.24045 4.40929C9.13964 4.48809 9.04983 4.59621 8.93619 4.64111C8.36798 4.86469 7.79611 5.07819 7.2215 5.28161C6.54057 5.5226 6.09883 5.99175 5.85414 6.66158C5.66077 7.19212 5.47381 7.72358 5.27036 8.24954C5.20987 8.40623 5.10539 8.54551 4.96059 8.7975H4.95876Z" fill="#D7E3FF"/>
<path d="M3.5868 11.5425C3.74626 11.965 3.92863 12.381 4.0606 12.8116C4.27047 13.4952 4.69938 13.9295 5.38214 14.1458C5.82295 14.2851 6.24819 14.4738 6.67984 14.6406C6.67984 14.6864 6.67984 14.7313 6.67984 14.7771C6.23444 14.9494 5.79637 15.1455 5.34181 15.2893C4.70762 15.49 4.3053 15.8923 4.09635 16.519C3.94421 16.9744 3.75909 17.4198 3.54006 17.9998C3.41359 17.778 3.3531 17.6717 3.29445 17.5655C3.27978 17.5389 3.27062 17.5096 3.26054 17.4802C2.53654 15.4918 2.72624 15.6898 0.781519 14.964C0.629387 14.9072 0.481837 14.8376 0.216064 14.724C0.446095 14.6094 0.567984 14.537 0.697205 14.4867C1.03721 14.352 1.3763 14.2127 1.72455 14.1018C2.34225 13.9039 2.72074 13.4906 2.92328 12.884C3.07541 12.4295 3.2587 11.9851 3.42733 11.5361C3.48049 11.5389 3.53456 11.5407 3.58771 11.5435L3.5868 11.5425Z" fill="#D7E3FF"/>
</g>
<defs>
<clipPath id="clip0_1212_1469">
<rect width="19" height="18" fill="white" transform="translate(0.215149)"/>
</clipPath>
</defs>
</svg>
