<svg width="19" height="18" viewBox="0 0 19 18" fill="none" xmlns="http://www.w3.org/2000/svg">
<g clip-path="url(#clip0_1212_1608)">
<path d="M18.2011 15.8635C18.1843 17.0558 17.2068 17.9923 16.0138 17.995C14.638 17.9984 13.2616 17.9762 11.8858 17.9997C10.7236 18.0199 9.6985 16.9558 9.73746 15.8481C9.76232 15.1559 9.74217 14.4618 9.74217 13.7689H9.74351C9.74351 13.0976 9.76165 12.4262 9.73948 11.7562C9.6985 10.5337 10.6524 9.56432 11.9355 9.54351C13.2998 9.52135 14.6655 9.52874 16.0306 9.54283C17.1948 9.55492 18.1856 10.5223 18.2004 11.671C18.2185 13.0687 18.2212 14.4665 18.2011 15.8635ZM15.035 13.3077C14.4539 13.295 13.8729 13.3044 13.2925 13.305C13.0688 13.305 12.8451 13.2983 12.622 13.3077C12.2982 13.3218 12.0967 13.5172 12.1014 13.7985C12.1054 14.0777 12.2774 14.2241 12.6207 14.2281C13.0231 14.2328 13.4255 14.2295 13.8272 14.2295V14.2275C14.2296 14.2275 14.632 14.2301 15.0337 14.2268C15.3407 14.2241 15.5738 14.0448 15.5859 13.8099C15.6 13.5366 15.3776 13.3151 15.035 13.3077Z" fill="#D7E3FF"/>
<path d="M8.68817 4.22926H8.68548C8.68548 4.93282 8.6922 5.63706 8.68347 6.34062C8.66936 7.48593 7.74568 8.43991 6.60502 8.45468C5.18558 8.4728 3.76479 8.47146 2.34535 8.45468C1.20939 8.44125 0.246074 7.48862 0.229952 6.35338C0.209799 4.94625 0.210471 3.53777 0.229952 2.13064C0.246746 0.940355 1.22148 0.00584793 2.41319 0.00249195C3.77688 -0.000864983 5.14124 -0.00220776 6.50493 0.0051775C7.76382 0.0118904 8.67675 0.926928 8.68683 2.18368C8.69287 2.86509 8.68817 3.5465 8.68817 4.22858V4.22926ZM5.26955 4.04866C5.41398 3.92715 5.55102 3.79087 5.66925 3.64385C5.83047 3.44379 5.88556 3.21889 5.67933 3.01346C5.47444 2.80937 5.26149 2.84361 5.06063 3.0336C4.9162 3.17122 4.76102 3.30012 4.62801 3.44849C4.50508 3.58611 4.4117 3.5653 4.29885 3.44379C4.16919 3.30415 4.0382 3.16652 3.89511 3.04165C3.68619 2.86039 3.4719 2.80736 3.24619 3.03293C3.02383 3.25514 3.10444 3.44379 3.27642 3.64519C3.441 3.83854 3.748 3.96945 3.75807 4.21851C3.76882 4.47295 3.43831 4.58507 3.29187 4.78915C3.18035 4.94356 3.04466 5.08857 3.16154 5.30072C3.24551 5.45512 3.35434 5.57328 3.54512 5.57932C3.8192 5.58134 3.95221 5.36516 4.11612 5.20606C4.48022 4.8536 4.47619 4.85025 4.83021 5.198C4.9256 5.29199 5.01696 5.39202 5.12243 5.47392C5.3206 5.62766 5.53087 5.61558 5.69075 5.42894C5.83988 5.25439 5.86742 5.03956 5.70217 4.8489C5.57117 4.69785 5.42943 4.55284 5.27761 4.42193C5.12646 4.29102 5.10429 4.18696 5.26955 4.04866Z" fill="#D7E3FF"/>
<path d="M18.2044 6.25377C18.197 7.48031 17.2384 8.4457 16.0111 8.45577C14.6353 8.46719 13.2595 8.46853 11.8844 8.45577C10.7652 8.44503 9.7764 7.53201 9.75423 6.44779C9.724 4.96211 9.72534 3.47509 9.75423 1.98942C9.77505 0.948166 10.7531 0.0237284 11.791 0.00694466C12.5065 -0.00446796 13.2226 0.0049305 13.9387 0.0049305V0.00224686C14.6205 0.00224686 15.303 0.000904083 15.9849 0.00224686C17.2417 0.00627422 18.1963 0.944137 18.2037 2.19753C18.2111 3.55028 18.2118 4.90237 18.2037 6.25445L18.2044 6.25377ZM13.985 6.24706C14.3041 6.24169 14.5782 5.96778 14.5815 5.64957C14.5856 5.28771 14.3175 5.03193 13.9393 5.0373C13.5887 5.042 13.3267 5.3139 13.3401 5.65897C13.3542 6.00873 13.6209 6.25243 13.985 6.24706ZM13.9723 2.21633C13.6202 2.21431 13.3294 2.48084 13.3321 2.80174C13.3354 3.14009 13.6384 3.42877 13.9837 3.42407C14.3142 3.41937 14.5862 3.1307 14.5809 2.79033C14.5755 2.47815 14.3001 2.21834 13.9723 2.21633ZM14.9927 3.83426C14.646 3.83225 14.2994 3.83359 13.9534 3.83359V3.8356C13.6182 3.8356 13.283 3.83359 12.9478 3.8356C12.6166 3.83762 12.3862 4.00881 12.3849 4.27399C12.3842 4.59355 12.5938 4.73587 12.882 4.74057C13.4355 4.7493 13.989 4.73386 14.5426 4.72714C14.6991 4.72513 14.855 4.71573 15.0108 4.71305C15.3494 4.70633 15.52 4.56334 15.5254 4.2807C15.5308 3.99135 15.3467 3.8356 14.9927 3.83359V3.83426Z" fill="#D7E3FF"/>
<path d="M8.68748 15.7957C8.67875 17.078 7.76851 17.9896 6.48677 17.9943C5.13316 17.999 3.77888 17.999 2.4246 17.9957C1.21206 17.9923 0.240012 17.0464 0.22792 15.838C0.215156 14.4517 0.215156 13.0647 0.227248 11.6784C0.237997 10.5317 1.20333 9.55692 2.35003 9.54349C3.77082 9.52738 5.19228 9.52469 6.61374 9.54416C7.73895 9.5596 8.66867 10.5149 8.68345 11.6361C8.69218 12.3403 8.6848 13.0452 8.6848 13.7494H8.68815C8.68815 14.4315 8.69219 15.1136 8.68748 15.7957ZM6.1959 13.7394C6.18179 13.4279 5.97489 13.3225 5.70416 13.3037C5.52682 13.2916 5.34679 13.2929 5.16877 13.3037C4.9847 13.3144 4.9014 13.2506 4.91282 13.0566C4.92357 12.8673 4.93096 12.6753 4.90745 12.488C4.8752 12.2369 4.7516 12.0268 4.4661 12.0322C4.18261 12.0369 4.02408 12.2154 3.98914 12.4981C3.9569 12.7585 4.11409 13.1003 3.90584 13.2587C3.7332 13.3903 3.41411 13.3453 3.15951 13.3507C2.85453 13.3567 2.74302 13.5433 2.72219 13.7971C2.70338 14.0227 2.95126 14.2154 3.22064 14.2321C3.47323 14.2482 3.78224 14.1234 3.96496 14.2946C4.15373 14.4705 4.02206 14.7826 4.03818 15.0344C4.05699 15.3224 4.17791 15.4996 4.48222 15.505C4.75093 15.5104 4.91215 15.3318 4.92089 15.029C4.92357 14.9397 4.92156 14.8504 4.92156 14.7612H4.92021C4.92021 14.694 4.92827 14.6255 4.91887 14.5604C4.87991 14.2993 4.98067 14.1912 5.24938 14.2214C5.40389 14.2389 5.56242 14.2328 5.7176 14.2201C6.04677 14.1932 6.20933 14.026 6.1959 13.7394Z" fill="#D7E3FF"/>
</g>
<defs>
<clipPath id="clip0_1212_1608">
<rect width="18" height="18" fill="white" transform="matrix(1 0 0 -1 0.215149 18)"/>
</clipPath>
</defs>
</svg>
