<svg width="20" height="18" viewBox="0 0 20 18" fill="none" xmlns="http://www.w3.org/2000/svg">
<g clip-path="url(#clip0_1212_1621)">
<path d="M13.6161 5.96991C14.6883 5.96991 15.6495 5.98074 16.6099 5.9672C17.6179 5.95185 18.4509 6.26159 18.932 7.18628C19.4011 8.0875 19.2564 8.95531 18.7111 9.7879C18.6351 9.90349 18.6103 10.094 18.6433 10.2295C18.822 10.9519 18.7368 11.6256 18.3629 12.2748C18.2887 12.4031 18.2713 12.5864 18.2887 12.7372C18.3748 13.5048 18.2199 14.1974 17.7159 14.8078C17.6307 14.9108 17.5849 15.0787 17.5886 15.2151C17.6289 16.9344 16.5192 17.8817 14.735 17.9801C12.4487 18.1057 10.2842 17.6352 8.16004 16.8676C7.70461 16.7033 7.22901 16.5814 6.75433 16.4802C6.09363 16.3393 5.91585 16.1515 5.91494 15.4742C5.91311 13.1417 5.91494 10.8092 5.91494 8.4758C5.91494 8.3855 5.91127 8.29429 5.91952 8.2049C5.95159 7.85272 6.16236 7.64863 6.4785 7.49963C6.77266 7.36147 7.10988 7.23414 7.31607 7.00387C8.26634 5.94553 9.21937 4.88447 10.0808 3.75659C10.4024 3.33578 10.4867 2.73618 10.6608 2.21242C10.7314 2.00021 10.7442 1.76994 10.8001 1.55141C11.0677 0.496673 11.4938 0.00181526 12.1243 9.2093e-06C13.3678 -0.00269987 14.2658 0.592394 14.5077 1.6381C14.7652 2.75153 14.7066 3.8469 14.1668 4.88628C13.9955 5.21588 13.8305 5.5491 13.617 5.96991H13.6161Z" fill="#D7E3FF"/>
<path d="M0.21605 11.9472C0.21605 10.7589 0.2133 9.56957 0.21605 8.38119C0.217882 7.76893 0.488211 7.49803 1.10126 7.49622C2.15509 7.49261 3.20891 7.49171 4.26182 7.49622C4.85196 7.49893 5.1397 7.76532 5.14153 8.35409C5.14978 10.7769 5.14978 13.1997 5.14153 15.6225C5.1397 16.186 4.85654 16.4488 4.28931 16.4524C3.22082 16.4587 2.15142 16.4578 1.08293 16.4524C0.477215 16.4497 0.217882 16.1951 0.21605 15.6045C0.211468 14.3854 0.215133 13.1663 0.215133 11.9481L0.21605 11.9472ZM2.49781 13.4688C2.09919 13.4643 1.73631 13.812 1.72439 14.2084C1.71248 14.6075 2.05062 14.9633 2.45749 14.9805C2.88452 14.9986 3.24557 14.6527 3.24648 14.2247C3.24648 13.8291 2.8946 13.4733 2.49689 13.4688H2.49781Z" fill="#D7E3FF"/>
</g>
<defs>
<clipPath id="clip0_1212_1621">
<rect width="19" height="18" fill="white" transform="translate(0.215149)"/>
</clipPath>
</defs>
</svg>
