<svg width="19" height="18" viewBox="0 0 19 18" fill="none" xmlns="http://www.w3.org/2000/svg">
<path d="M2.73484 0.877175C2.73484 1.32647 2.72813 1.75661 2.73652 2.18675C2.74726 2.72769 3.13459 3.19902 3.67364 3.34464C4.4859 3.56402 5.3032 2.99625 5.3277 2.18834C5.33878 1.81601 5.33039 1.44335 5.33072 1.07069C5.33072 1.01321 5.33072 0.95573 5.33072 0.885477H10.2204C10.2204 1.21151 10.2174 1.53468 10.2217 1.85752C10.2241 2.03794 10.217 2.22187 10.252 2.39751C10.3741 3.01509 10.9585 3.43213 11.6157 3.38711C12.2611 3.34304 12.7874 2.83563 12.8126 2.21389C12.8284 1.8259 12.8186 1.43696 12.82 1.04865C12.82 0.996923 12.82 0.945192 12.82 0.895696C13.9427 0.75998 14.8382 1.10071 15.2259 2.09255C15.3021 2.28702 15.3333 2.50831 15.3336 2.71747C15.3407 5.18143 15.3383 7.64569 15.338 10.1096C15.338 10.1515 15.3343 10.1933 15.332 10.2425C14.9956 10.2048 14.667 10.1681 14.3227 10.1298V5.2405H1.24323V10.688C1.30801 10.688 1.36776 10.688 1.4275 10.688C1.99239 10.688 2.55762 10.686 3.12251 10.6886C4.17107 10.6931 5.00917 11.4805 5.02226 12.48C5.02998 13.0756 5.02361 13.6715 5.02361 14.2868H9.94182C9.98411 14.6189 10.0241 14.9322 10.0657 15.2598H9.88678C8.40993 15.2598 6.93309 15.2572 5.45659 15.262C5.16391 15.263 4.92661 15.171 4.72119 14.9746C3.31886 13.637 1.91419 12.3012 0.508839 10.9667C0.311479 10.7793 0.215149 10.5615 0.215149 10.2952C0.217163 7.76736 0.214478 5.23922 0.216827 2.71141C0.217834 1.69658 1.00627 0.919965 2.07194 0.878452C2.28373 0.870149 2.49586 0.877175 2.73484 0.877175ZM2.30387 11.653C2.87648 12.1955 3.44238 12.7317 3.99217 13.2525C3.99217 12.9718 4.02338 12.6582 3.98445 12.3526C3.93444 11.9592 3.58302 11.676 3.16849 11.6558C2.88017 11.6418 2.59051 11.653 2.30387 11.653Z" fill="#D7E3FF"/>
<path d="M18.2152 14.2925C18.2155 16.3403 16.4739 17.9996 14.3234 17.9999C12.1645 17.9999 10.4265 16.3407 10.4276 14.28C10.4286 12.2465 12.1763 10.5892 14.3197 10.5898C16.4739 10.5902 18.2149 12.2453 18.2152 14.2925ZM11.4412 14.2909C11.4378 15.7952 12.7408 17.0365 14.3227 17.0349C15.9003 17.0333 17.1948 15.8061 17.2022 14.3053C17.2096 12.8006 15.9123 11.5584 14.3288 11.5536C12.7469 11.5491 11.4446 12.7833 11.4412 14.2909Z" fill="#D7E3FF"/>
<path d="M4.82055 1.45969C4.82055 1.69376 4.82391 1.92751 4.81988 2.16158C4.81216 2.58852 4.47014 2.90658 4.02742 2.90402C3.58773 2.90147 3.24973 2.57767 3.24671 2.14944C3.24369 1.68705 3.24369 1.22434 3.24671 0.761954C3.24906 0.328623 3.5978 -0.00379917 4.03984 3.27955e-05C4.47652 0.00386476 4.81418 0.33022 4.81988 0.757803C4.8229 0.991553 4.82055 1.22562 4.82055 1.45969Z" fill="#D7E3FF"/>
<path d="M12.3077 1.45936C12.3077 1.68257 12.309 1.90578 12.3077 2.129C12.3046 2.57287 11.9764 2.89986 11.5313 2.90401C11.0755 2.90816 10.7352 2.5834 10.7315 2.13379C10.7278 1.68193 10.7281 1.23008 10.7315 0.77823C10.7342 0.331487 11.0792 -0.00317064 11.5263 2.26607e-05C11.9683 0.00321596 12.3016 0.331807 12.307 0.77344C12.31 1.00208 12.3077 1.23072 12.3077 1.45936Z" fill="#D7E3FF"/>
<path d="M13.9228 12.6383C13.9507 12.2762 13.9785 12.334 14.3068 12.3286C14.3125 12.3286 14.3179 12.3286 14.3236 12.3286C14.5655 12.3286 14.7054 12.4282 14.7435 12.6275C14.9959 12.7227 15.2419 12.7958 15.4678 12.9059C15.7041 13.0215 15.8682 13.2119 15.9196 13.4705C15.9609 13.6784 15.8914 13.755 15.6675 13.756C15.5054 13.757 15.3409 13.7723 15.1822 13.7499C15.0828 13.7359 14.9653 13.6854 14.9036 13.6142C14.6915 13.3703 14.1504 13.2815 13.8815 13.4753C13.8278 13.5139 13.7805 13.5989 13.7845 13.6589C13.7879 13.7087 13.8641 13.7822 13.9211 13.7956C14.1752 13.8553 14.436 13.8892 14.6904 13.9479C14.9768 14.014 15.2755 14.0622 15.5393 14.1788C16.1559 14.4512 16.2374 15.2022 15.6893 15.5877C15.4859 15.7307 15.2188 15.7933 14.9774 15.8853C14.9066 15.9124 14.8254 15.9147 14.7546 15.9274C14.7452 15.9447 14.7368 15.954 14.7358 15.9635C14.7199 16.1562 14.6085 16.2538 14.4018 16.2564C14.3793 16.2564 14.3571 16.2583 14.3347 16.2573C13.9745 16.2413 13.9584 16.3301 13.9205 15.9482C13.6862 15.8856 13.4499 15.84 13.2274 15.7592C12.928 15.6503 12.7004 15.4577 12.6192 15.1467C12.5457 14.866 12.6148 14.7842 12.9135 14.7842C13.0085 14.7842 13.1042 14.7913 13.1985 14.7826C13.4116 14.7635 13.5778 14.8133 13.6916 15.0055C13.7305 15.0713 13.8241 15.124 13.9044 15.1492C14.1762 15.2345 14.4538 15.2326 14.729 15.1559C14.771 15.1441 14.82 15.1275 14.8462 15.0975C14.8932 15.0432 14.959 14.9746 14.9539 14.9171C14.9489 14.8622 14.8724 14.7855 14.8116 14.7683C14.6253 14.7153 14.4313 14.6875 14.241 14.6476C13.9416 14.585 13.6355 14.5412 13.3455 14.4515C12.9609 14.3324 12.7021 14.0897 12.6947 13.6736C12.6873 13.2623 12.9115 12.9887 13.2905 12.8296C13.4875 12.7469 13.7026 12.7035 13.9238 12.6383H13.9228Z" fill="#D7E3FF"/>
</svg>
