<svg width="19" height="18" viewBox="0 0 19 18" fill="none" xmlns="http://www.w3.org/2000/svg">
<g clip-path="url(#clip0_1212_1531)">
<path d="M7.29734 11.1728C8.1614 11.8647 8.9883 12.5274 9.86075 13.2275C11.2078 11.7503 12.5272 10.3047 13.8838 8.81942C13.4967 8.47172 13.1384 8.14969 12.7034 7.75883C13.8575 7.60598 14.9133 7.46597 16.0098 7.32129V10.5789C15.6203 10.2604 15.2692 9.97218 14.8461 9.62682C13.2271 11.398 11.6188 13.1575 9.99138 14.9391C9.10934 14.2297 8.25008 13.5378 7.34768 12.8121C6.1253 13.9205 4.9161 15.0149 3.64698 16.1642C3.35336 15.8562 3.07533 15.5668 2.78412 15.2623C4.29052 13.8972 5.77656 12.5507 7.29495 11.1739L7.29734 11.1728Z" fill="#D7E3FF"/>
<path d="M9.76715 2.2041H11.8009C11.8224 2.30094 11.8524 2.37212 11.8524 2.44446C11.8524 4.85383 11.8524 7.26203 11.8476 9.6714C11.8476 9.79975 11.8392 9.96426 11.7625 10.0518C11.1321 10.7658 10.485 11.4659 9.76835 12.2511V2.2041H9.76715Z" fill="#D7E3FF"/>
<path d="M8.33989 11.0328C7.9552 10.7458 7.61724 10.4937 7.2697 10.2347C6.94853 10.5077 6.65372 10.7586 6.29779 11.0631V5.00293H8.33989V11.0328Z" fill="#D7E3FF"/>
<path d="M2.80695 14.2654V7.79688H4.89937C4.89937 9.28683 4.90417 10.7558 4.88979 12.2236C4.88979 12.3344 4.77594 12.4639 4.68246 12.5514C4.09284 13.101 3.49364 13.64 2.80695 14.2654Z" fill="#D7E3FF"/>
</g>
<g clip-path="url(#clip1_1212_1531)">
<path d="M18.2147 17.0477V17.6325H0.214664V12.9586C0.214664 8.76148 0.210342 4.56286 0.229073 0.367188H0.825566C0.841415 5.57994 0.837093 10.7942 0.837093 16.0084V17.0373H1.85142C7.15647 17.0373 12.463 17.0359 17.7695 17.0418C17.9121 17.0418 18.0792 17.0211 18.2147 17.0477Z" fill="#D7E3FF"/>
</g>
<defs>
<clipPath id="clip0_1212_1531">
<rect width="13.2245" height="13.9592" fill="white" transform="translate(2.78638 2.2041)"/>
</clipPath>
<clipPath id="clip1_1212_1531">
<rect width="18" height="17.2653" fill="white" transform="translate(0.215149 0.367188)"/>
</clipPath>
</defs>
</svg>
