<svg width="14" height="18" viewBox="0 0 14 18" fill="none" xmlns="http://www.w3.org/2000/svg">
<g clip-path="url(#clip0_1212_1558)">
<path d="M3.5155 7.12617C3.62482 7.10641 3.70419 7.09186 3.81002 7.07314V3.20868C4.14698 3.19204 4.16146 3.20504 4.16146 3.51702C4.16196 4.60013 4.16146 5.68376 4.16195 6.76687C4.16195 6.86099 4.16195 6.95562 4.16195 7.07366C4.47844 7.04246 4.46746 7.24577 4.45848 7.46884C4.446 7.7751 4.45548 8.08241 4.51389 8.40843C4.77846 8.05797 5.04752 7.71063 5.30361 7.3534C5.34704 7.29257 5.34554 7.18857 5.34654 7.10381C5.35054 6.62804 5.34854 6.15226 5.34854 5.65256C5.69398 5.68064 5.66053 5.44353 5.66004 5.2267C5.65904 4.72545 5.66004 4.22471 5.66004 3.71981C5.89316 3.67925 5.97602 3.76089 5.96953 3.9928C5.95656 4.43426 5.97453 4.87676 5.96255 5.31874C5.95706 5.52413 5.98801 5.66452 6.24858 5.6354V6.70083H7.15662V5.13935C7.26145 5.12011 7.34032 5.10555 7.45613 5.08423C7.45613 4.73429 7.47011 4.38122 7.45164 4.02972C7.43766 3.76921 7.53351 3.66314 7.80457 3.68289V5.08215C7.9099 5.10087 7.98877 5.11491 8.0931 5.13311V6.13718C8.11207 6.14966 8.13104 6.16162 8.15051 6.1741C8.42357 5.90631 8.70112 5.6432 8.96569 5.36606C9.00663 5.32342 8.99365 5.21838 8.99515 5.14195C8.99914 4.89912 9.00513 4.65629 8.99615 4.41398C8.98866 4.21171 9.00513 4.04428 9.28468 4.06872C9.28468 3.86853 9.29716 3.68705 9.28168 3.5087C9.26172 3.28199 9.35257 3.19048 9.59568 3.20452V4.05C9.71199 4.07704 9.79735 4.09732 9.90767 4.12331V4.93916C10.5292 4.97139 11.1307 5.05771 11.6449 4.56165C11.6359 4.52318 11.6194 4.4535 11.6049 4.3911H12.3268C12.178 4.62977 12.0547 4.82736 11.9174 5.04731C11.857 4.95787 11.8121 4.89132 11.7392 4.78316C11.2156 5.28182 10.5731 5.21214 9.91766 5.19082V6.21466C9.5792 6.18814 9.60067 6.40913 9.60117 6.63376C9.60466 8.55767 9.60317 10.4816 9.60366 12.4055C9.60366 12.4403 9.61814 12.4861 9.60217 12.5074C9.55574 12.5688 9.49784 12.6208 9.44392 12.6764C9.39051 12.6202 9.29466 12.5667 9.29067 12.5069C9.2737 12.2479 9.28418 11.9874 9.28418 11.7274C9.28418 10.0027 9.28418 8.27844 9.28368 6.55368C9.28368 6.4606 9.27619 6.36753 9.2717 6.26665C9.18135 6.25001 9.10946 6.23702 9.01511 6.21986C9.00363 6.06594 8.99165 5.90683 8.97618 5.7056C8.68465 5.98327 8.41658 6.22662 8.16549 6.48712C8.11307 6.54172 8.10459 6.66028 8.10459 6.74919C8.10059 7.97997 8.10109 9.21024 8.10059 10.441C8.10059 10.5429 8.10059 10.6449 8.10059 10.7644C7.81655 10.7254 7.80158 10.8882 7.80507 11.0946C7.81405 11.6125 7.80807 12.1309 7.80807 12.6691H7.45464C7.45464 12.4492 7.45464 12.2277 7.45464 12.0067C7.45464 11.7035 7.44865 11.3999 7.45763 11.0967C7.46362 10.8934 7.44964 10.726 7.16161 10.7686V6.97954H6.26556V8.50879C5.96205 8.48851 5.96155 8.6757 5.96255 8.89097C5.96854 10.0001 5.96504 11.1097 5.96504 12.2188C5.96504 12.3566 5.96504 12.4944 5.96504 12.6265C5.6825 12.7112 5.65704 12.6962 5.65654 12.418C5.65504 11.2309 5.65754 10.0432 5.65704 8.85613C5.65704 8.69442 5.68899 8.51191 5.4364 8.51555C5.40944 8.51555 5.36102 8.39699 5.35702 8.33096C5.34604 8.15105 5.35303 7.97009 5.29612 7.76158C5.11591 7.99869 4.95068 8.25088 4.752 8.46979C4.51189 8.73394 4.43252 9.02564 4.44899 9.38599C4.47445 9.94808 4.44899 10.5123 4.45997 11.0754C4.46397 11.2782 4.44051 11.4233 4.16795 11.3879V12.6733H3.82051C3.82051 12.3389 3.81502 12.0207 3.8225 11.7025C3.8275 11.5018 3.82151 11.3271 3.53097 11.3739V9.38859C3.04975 9.44579 2.5885 9.28043 2.14571 9.51754C1.73188 9.73905 1.31605 9.95692 0.881754 10.1862C0.846311 10.1249 0.811368 10.064 0.765442 9.985C1.27811 9.71617 1.76682 9.43903 2.2745 9.2066C2.43724 9.13224 2.6499 9.17124 2.83959 9.16708C3.05424 9.16188 3.2694 9.16604 3.5155 9.16604V7.12513V7.12617Z" fill="#D7E3FF"/>
<path d="M1.84303 1.5791C1.84303 1.72053 1.84303 1.83857 1.84303 1.9566C1.84303 2.44174 1.82107 2.92844 1.84952 3.41202C1.87897 3.91431 1.84403 4.44417 2.25287 4.88147H1.18609C1.62788 4.25542 1.5535 3.53681 1.55849 2.83484C1.56398 2.1178 1.56099 2.1178 0.893065 1.93424C0.692389 1.87913 0.492212 1.82297 0.214661 1.74549C0.385884 1.6935 0.488718 1.6597 0.59255 1.63162C2.55538 1.09708 4.51721 0.560988 6.48104 0.0332131C6.61882 -0.00370514 6.78055 -0.0135847 6.91633 0.0228136C8.94456 0.567228 10.9708 1.12204 12.997 1.67426C13.0514 1.68934 13.1043 1.71065 13.2152 1.74861C12.4784 1.9514 11.8004 2.13963 11.121 2.32423C9.72929 2.70225 8.33804 3.08131 6.94379 3.45049C6.80651 3.48689 6.64527 3.48845 6.50849 3.45205C5.14669 3.09171 3.78989 2.71109 2.42659 2.35802C2.16152 2.28939 2.10511 2.16823 2.18498 1.89733C2.27034 1.89733 2.3597 1.89733 2.44905 1.89733C3.28121 1.89733 4.11336 1.88485 4.94452 1.90253C5.3898 1.91241 5.83308 1.99924 6.27837 2.00652C6.68121 2.01328 7.08556 1.96908 7.48741 1.92488C7.56578 1.91605 7.63318 1.80529 7.70606 1.74133C7.63368 1.6779 7.57028 1.58586 7.48641 1.5557C7.01667 1.38879 6.53894 1.40959 6.05922 1.51254C5.89798 1.54686 5.73225 1.57442 5.56851 1.57546C4.42037 1.58066 3.27272 1.57806 2.12458 1.57754C2.04271 1.57754 1.96134 1.57754 1.84353 1.57754L1.84303 1.5791Z" fill="#D7E3FF"/>
<path d="M3.65071 13.7588H9.7843C8.75446 15.1835 7.74859 16.5755 6.71925 17.9997C5.6969 16.5864 4.68603 15.1903 3.65021 13.7588H3.65071ZM5.63999 15.8455C6.01888 16.368 6.36482 16.8448 6.72225 17.3378C7.08167 16.836 7.42012 16.3639 7.75807 15.8923C7.74809 15.8813 7.73761 15.8704 7.72762 15.8595C7.58685 15.9271 7.44608 15.9947 7.29881 16.0654C7.20247 15.9858 7.10762 15.9068 7.00429 15.8215C6.90445 15.9505 6.8146 16.067 6.71825 16.1912C6.60893 16.0519 6.52157 15.9406 6.40276 15.7893C6.19809 16.276 5.93651 15.9182 5.63949 15.846L5.63999 15.8455Z" fill="#D7E3FF"/>
<path d="M10.2183 13.1162C10.1075 13.3741 9.96823 13.4927 9.68718 13.4906C7.71687 13.4766 5.74655 13.4766 3.77623 13.4906C3.49369 13.4927 3.32346 13.4006 3.21564 13.1162H10.2183Z" fill="#D7E3FF"/>
</g>
<defs>
<clipPath id="clip0_1212_1558">
<rect width="13" height="18" fill="white" transform="translate(0.215149)"/>
</clipPath>
</defs>
</svg>
