<svg width="19" height="18" viewBox="0 0 19 18" fill="none" xmlns="http://www.w3.org/2000/svg">
<g clip-path="url(#clip0_1143_1442)">
<path d="M12.729 11.4097C14.2497 12.4685 15.6918 13.548 17.2035 14.5019C18.6869 15.4365 18.4304 16.7521 17.1288 17.7654C16.5836 18.1892 15.8697 18.0249 15.3413 17.4092C14.2072 16.0895 13.0847 14.7587 11.9596 13.4321C11.8165 13.2636 11.6825 13.0869 11.5201 12.8826C9.73392 14.3542 7.78791 14.9506 5.61765 14.4715C4.02604 14.1209 2.71795 13.2374 1.69855 11.8818C-0.344121 9.16501 -0.268085 5.17268 1.86867 2.53735C4.04021 -0.144911 7.66419 -0.788212 10.5252 1.02849C12.1967 2.09008 13.2548 3.6652 13.6839 5.69449C14.1118 7.71551 13.7484 9.61228 12.729 11.4097ZM7.02754 1.48819C4.01057 1.48819 1.58901 4.09314 1.59287 7.33036C1.59674 10.5579 4.0183 13.1422 7.05074 13.1546C10.0484 13.167 12.4854 10.5427 12.4815 7.30413C12.4777 4.06415 10.0626 1.48681 7.02883 1.48681L7.02754 1.48819Z" fill="#D7E3FF"/>
<path d="M10.1812 7.13053C10.1812 7.9809 10.1812 8.83266 10.1812 9.68303C10.1812 10.0986 10.2559 10.5224 9.62961 10.5113C9.04451 10.5016 9.11024 10.1096 9.11024 9.71754C9.11024 7.99333 9.11024 6.26774 9.11024 4.54352C9.11024 4.128 9.03292 3.71938 9.66312 3.72766C10.2598 3.73457 10.1812 4.12248 10.1812 4.50901C10.1812 5.38285 10.1812 6.25669 10.1812 7.13053Z" fill="#D7E3FF"/>
<path d="M8.79195 7.61349C8.79195 8.37137 8.77777 9.12925 8.79582 9.88575C8.80613 10.3165 8.67596 10.5166 8.24423 10.5083C7.85632 10.5014 7.70811 10.3385 7.71069 9.9313C7.71971 8.39345 7.72357 6.85561 7.71069 5.31776C7.70682 4.87463 7.91173 4.77385 8.26743 4.77247C8.64117 4.77109 8.81128 4.91466 8.79839 5.34123C8.7752 6.09773 8.79195 6.85561 8.79195 7.61349Z" fill="#D7E3FF"/>
<path d="M7.39362 8.19156C7.39362 8.76584 7.38202 9.3415 7.39877 9.91578C7.41037 10.312 7.29825 10.5094 6.89101 10.508C6.51598 10.508 6.33298 10.3851 6.33684 9.95995C6.34715 8.76446 6.35102 7.56897 6.33684 6.3721C6.33169 5.94277 6.50567 5.82267 6.88198 5.82129C7.27634 5.82129 7.41553 5.9828 7.40006 6.39695C7.37815 6.99331 7.39491 7.59244 7.39491 8.19018L7.39362 8.19156Z" fill="#D7E3FF"/>
<path d="M5.99662 8.69269C5.99662 9.10407 5.98374 9.51683 6.00049 9.92683C6.01596 10.323 5.89481 10.5122 5.49014 10.5066C5.12027 10.5011 4.93727 10.3921 4.94629 9.95996C4.96433 9.11511 4.96949 8.2675 4.94629 7.42265C4.93469 6.97952 5.12929 6.88703 5.49014 6.88289C5.88064 6.87874 6.02498 7.04854 6.00307 7.45716C5.98116 7.86716 5.99791 8.27993 5.99791 8.69131H5.99534L5.99662 8.69269Z" fill="#D7E3FF"/>
<path d="M3.55443 9.21086C3.55443 9.00517 3.56603 8.79948 3.55056 8.59517C3.51834 8.16861 3.59953 7.90632 4.09184 7.91322C4.54677 7.91874 4.6228 8.15894 4.60991 8.5579C4.59445 9.01346 4.59058 9.47039 4.60991 9.92595C4.62796 10.3801 4.43207 10.514 4.02998 10.5099C3.6034 10.5057 3.53638 10.2628 3.55314 9.89558C3.56474 9.6678 3.55572 9.44002 3.55443 9.21086Z" fill="#D7E3FF"/>
</g>
<defs>
<clipPath id="clip0_1143_1442">
<rect width="18" height="18" fill="white" transform="translate(0.213989)"/>
</clipPath>
</defs>
</svg>
