<svg width="17" height="18" viewBox="0 0 17 18" fill="none" xmlns="http://www.w3.org/2000/svg">
<path d="M9.52909 0.0450744V12.5583H6.12432C6.10762 12.4731 6.09168 12.3771 6.07005 12.2822C5.93951 11.71 5.66134 11.2166 5.24997 10.7931C5.0109 10.5469 4.77941 10.293 4.51756 10.0139C4.63596 9.99901 4.71186 9.9893 4.80142 9.97772V7.54881C4.41017 7.54881 4.02043 7.54918 3.6307 7.54881C3.36126 7.54844 3.3586 7.54806 3.32065 7.2825C3.2865 7.04346 3.25918 6.80329 3.2254 6.53623H5.25301V3.8455H3.69976C3.81741 3.6143 3.91 3.41335 4.02271 3.22398C4.04662 3.18402 4.14263 3.17132 4.20562 3.17095C4.66101 3.16721 5.11639 3.16945 5.5714 3.16983C5.64009 3.16983 5.70916 3.16983 5.79985 3.16983C5.80327 3.09064 5.80858 3.02453 5.80896 2.95879C5.80972 2.42991 5.8063 1.90065 5.81314 1.37177C5.81389 1.30267 5.84767 1.20593 5.90004 1.16933C6.93604 0.442485 8.08817 0.0473155 9.36477 0.019676C9.40272 0.018929 9.44067 0.0211701 9.47824 0.0241581C9.48962 0.0249051 9.50063 0.0331222 9.52909 0.0450744Z" fill="#D7E3FF"/>
<path d="M9.94366 12.5313V9.50062C11.8225 9.38222 13.0665 7.81574 12.9868 6.16335C12.9151 4.67754 11.7641 3.29333 9.95581 3.15028V0.047188C10.4738 -0.0839126 10.9288 0.177915 11.0563 0.687004C11.1045 0.879733 11.1303 1.07806 11.1762 1.27154C11.1888 1.32458 11.2271 1.39293 11.2726 1.41273C11.4278 1.4807 11.5895 1.53785 11.7531 1.5823C11.8009 1.59537 11.8749 1.56661 11.9181 1.53337C12.0825 1.40712 12.2373 1.26855 12.3993 1.13932C12.7136 0.888697 13.1568 0.870022 13.4653 1.12625C13.8661 1.45904 14.255 1.80715 14.6326 2.16571C14.9093 2.42866 14.9453 2.83392 14.7461 3.16335C14.6364 3.34487 14.5036 3.51295 14.3951 3.69522C14.3647 3.74602 14.3757 3.82595 14.3833 3.89094C14.3882 3.9309 14.4326 3.96527 14.4421 4.00635C14.5192 4.34886 14.762 4.43514 15.0804 4.42543C15.1988 4.42169 15.3203 4.43999 15.4371 4.4639C15.8189 4.54121 16.1176 4.86504 16.1438 5.24378C16.1756 5.70319 16.2014 6.16335 16.2151 6.62351C16.2295 7.11654 15.9684 7.43551 15.4808 7.54271C15.3081 7.5808 15.1347 7.61778 14.9594 7.63944C14.8535 7.65252 14.7996 7.69846 14.781 7.79594C14.7799 7.80192 14.7795 7.80902 14.7761 7.81387C14.551 8.17057 14.6672 8.4507 14.9578 8.71589C15.1981 8.93476 15.3187 9.21863 15.2292 9.54358C15.1893 9.6885 15.1127 9.83529 15.0152 9.9507C14.7237 10.2947 14.4167 10.626 14.1105 10.9577C13.7571 11.3401 13.3314 11.3891 12.8877 11.1056C12.8559 11.0854 12.8244 11.0645 12.7929 11.0436C12.4784 10.8362 12.1546 10.8247 11.8214 11.0092C11.7785 11.0331 11.7443 11.1007 11.7371 11.1523C11.7075 11.3678 11.6984 11.5863 11.6654 11.8014C11.6058 12.1929 11.2962 12.4734 10.8954 12.5032C10.599 12.5253 10.3023 12.5365 10.0055 12.551C9.98844 12.5518 9.97061 12.5406 9.94366 12.5316V12.5313Z" fill="#D7E3FF"/>
<path d="M9.55045 12.9569C10.6696 12.9569 11.7883 12.9569 12.9074 12.9569C13.3495 12.9569 13.4952 13.1029 13.496 13.5418C13.4964 13.9336 13.4994 14.3258 13.496 14.7176C13.4876 15.5595 12.9639 16.0779 12.1086 16.0746C11.9382 16.0738 11.8706 16.1183 11.8285 16.2833C11.5921 17.2104 10.7826 17.8722 9.81988 17.9832C8.52089 18.1329 7.48451 17.2687 7.2553 16.2258C7.22911 16.1067 7.16953 16.0727 7.04696 16.0757C6.58436 16.0884 6.17262 15.9696 5.87054 15.5946C5.6956 15.3776 5.60035 15.13 5.59579 14.8554C5.5882 14.3766 5.58707 13.8974 5.59276 13.4182C5.59617 13.1325 5.78516 12.9629 6.09976 12.958C6.45989 12.9524 6.8204 12.9565 7.18092 12.9565C7.97101 12.9565 8.76149 12.9565 9.55158 12.9565L9.55045 12.9569Z" fill="#D7E3FF"/>
<path d="M9.95343 3.54688C11.2509 3.57041 12.6163 4.72491 12.5878 6.35041C12.5605 7.90681 11.2304 9.05235 9.95343 9.05497V3.54688Z" fill="#D7E3FF"/>
<path d="M2.93439 4.23633H4.85726V6.13486H2.93439V4.23633Z" fill="#D7E3FF"/>
<path d="M4.40894 7.95898V9.59083H2.75323V7.95898H4.40894Z" fill="#D7E3FF"/>
<path d="M0.941711 5.34863H2.2001V6.58232H0.941711V5.34863Z" fill="#D7E3FF"/>
<path d="M2.99892 0V1.23668H1.73712V0H2.99892Z" fill="#D7E3FF"/>
<path d="M0.215149 7.49609H1.46974V8.71858H0.215149V7.49609Z" fill="#D7E3FF"/>
<path d="M2.07748 3.6797H0.813782V2.43555C1.11168 2.43555 1.4054 2.43555 1.69951 2.43555C1.95149 2.43555 2.07748 2.5598 2.07748 2.80831C2.07748 3.09329 2.07748 3.37828 2.07748 3.6797Z" fill="#D7E3FF"/>
<path d="M5.39322 1.59277V2.77865H4.18341V1.59277H5.39322Z" fill="#D7E3FF"/>
</svg>
