<svg width="15" height="18" viewBox="0 0 15 18" fill="none" xmlns="http://www.w3.org/2000/svg">
<g clip-path="url(#clip0_1212_1632)">
<path d="M12.0798 7.28105C11.3995 6.66822 10.7324 6.04239 10.0705 5.41049C9.84961 5.19986 9.66463 4.95282 9.42005 4.67111C9.71811 4.65118 9.91711 4.63817 10.1363 4.62257V3.63268H9.21141C9.74879 2.8439 10.1503 2.05424 10.927 1.54543C11.1812 1.37987 11.3723 1.09989 11.1988 0.760971C11.0164 0.404716 10.7026 0.47666 10.3966 0.561607C10.3265 0.581543 10.2572 0.60408 10.1906 0.631818C9.79613 0.792176 9.46476 0.708963 9.14566 0.42812C8.51974 -0.122299 8.16382 -0.150037 7.54754 0.391714C7.21266 0.686426 6.99701 0.629218 6.70158 0.381312C6.09669 -0.123166 5.73902 -0.0980289 5.12011 0.396048C4.93865 0.540804 4.69932 0.675158 4.47578 0.694228C4.22769 0.715898 3.96908 0.593679 3.71222 0.545138C3.44923 0.494863 3.12838 0.441122 3.04159 0.756637C2.98724 0.950801 3.10383 1.20737 3.19062 1.41714C3.23445 1.52376 3.37647 1.59483 3.48079 1.67198C4.16369 2.17906 4.5687 2.8907 5.03595 3.66822H4.26012V4.63384C4.44159 4.65118 4.59763 4.66591 4.75367 4.68065C4.78348 4.72572 4.81416 4.76993 4.84397 4.815C4.0883 5.54832 3.35017 6.29983 2.57259 7.01061C1.23395 8.23367 0.350294 9.69856 0.230193 11.5128C0.044345 14.2961 1.65036 16.6104 4.34691 17.5223C6.18436 18.1438 8.05336 18.1525 9.89782 17.583C11.7204 17.0196 13.1388 15.9569 13.8226 14.1097C14.7229 11.6775 14.0496 9.05279 12.0798 7.28105ZM9.36395 10.4553C9.28855 10.5706 9.21053 10.6841 9.13777 10.8011C9.11322 10.8419 9.0843 10.8566 9.03608 10.8566C8.79588 10.854 8.55568 10.8557 8.31548 10.8549C8.27428 10.8549 8.24798 10.8583 8.23833 10.9095C8.10158 11.6307 7.658 12.1022 6.9935 12.3908C6.67791 12.5278 6.34478 12.598 6.00202 12.6301C5.98273 12.6318 5.96432 12.6353 5.92838 12.6414C6.83132 13.7543 7.72725 14.8578 8.63019 15.9699C8.60302 15.9742 8.58548 15.9777 8.56708 15.9777C8.21028 15.9777 7.85349 15.9794 7.49757 15.9768C7.46601 15.9759 7.42569 15.956 7.4064 15.9317C6.56394 14.8898 5.72324 13.8462 4.88342 12.8017C4.86413 12.7783 4.84572 12.7462 4.84572 12.7176C4.84046 12.5295 4.84134 12.3406 4.84046 12.1525C4.84046 12.1403 4.84485 12.1291 4.8466 12.1178C4.99037 12.1178 5.13151 12.1178 5.27177 12.1178C5.62681 12.1178 5.9801 12.1083 6.32374 12.0043C6.72437 11.8838 7.0198 11.6419 7.18987 11.2579C7.24597 11.1323 7.26351 11.0005 7.26 10.8531H4.61517C4.68091 10.7491 4.73614 10.6607 4.79225 10.5723C4.86676 10.4561 4.94303 10.3417 5.01491 10.2247C5.03946 10.1831 5.06927 10.1718 5.11661 10.1718C5.76795 10.1736 6.4193 10.1727 7.07064 10.1727H7.16269C7.15042 10.1458 7.14341 10.1259 7.13376 10.1077C6.98736 9.83725 6.7533 9.67516 6.46401 9.58501C6.17997 9.49573 5.8863 9.47059 5.59087 9.46886C5.28141 9.46712 4.97196 9.47059 4.6625 9.47146C4.65286 9.47146 4.64322 9.46973 4.62393 9.46713C4.6362 9.44459 4.64497 9.42552 4.65549 9.40818C4.77559 9.22529 4.89394 9.04153 5.01754 8.86123C5.0342 8.83609 5.07453 8.81096 5.10346 8.81096C6.56044 8.80836 8.01654 8.80922 9.47265 8.80922C9.47966 8.80922 9.48667 8.81269 9.50333 8.81616C9.4893 8.84216 9.47791 8.8647 9.46388 8.88637C9.3543 9.05886 9.24384 9.22962 9.13689 9.40298C9.11059 9.44459 9.08167 9.45672 9.03433 9.45672C8.68279 9.45672 8.33126 9.45759 7.97972 9.45846C7.95518 9.45846 7.93151 9.46106 7.89732 9.46192C7.91573 9.4862 7.92713 9.5044 7.94028 9.52087C8.07616 9.69336 8.16733 9.88839 8.21642 10.1008C8.22869 10.1571 8.25061 10.1744 8.30934 10.1744C8.69331 10.1718 9.07728 10.1727 9.46125 10.1727H9.54716C9.48054 10.2759 9.4218 10.366 9.36395 10.4553Z" fill="#D7E3FF"/>
</g>
<defs>
<clipPath id="clip0_1212_1632">
<rect width="14" height="18" fill="white" transform="translate(0.215149)"/>
</clipPath>
</defs>
</svg>
