<svg width="26" height="18" viewBox="0 0 26 18" fill="none" xmlns="http://www.w3.org/2000/svg">
<g clip-path="url(#clip0_1212_1430)">
<path d="M21.0175 16.2794C20.8208 16.9237 20.6743 17.4024 20.5292 17.881C19.4215 18.1084 19.4174 18.1014 19.1063 17.0233C19.0477 16.817 18.9444 16.6247 18.83 16.3496C18.3641 16.7496 17.9818 17.0781 17.5298 17.4669C17.248 17.2929 16.9411 17.1034 16.5979 16.8914C16.7053 16.504 16.7988 16.1264 16.916 15.7572C17.0569 15.3094 16.9341 15.1227 16.457 15.2308C16.277 15.2715 16.0831 15.2743 15.9129 15.3403C15.5195 15.4933 15.2502 15.4147 15.0689 15.009C14.9056 14.644 14.8219 14.3661 15.2112 14.0362C16.1612 13.2319 16.1361 13.215 14.9726 12.6858C14.8052 12.61 14.7271 12.3223 14.5597 12.2591C14.1035 12.085 13.6138 11.8492 13.152 11.8787C12.6861 11.9082 12.8981 12.356 12.9916 12.6549C13.0683 12.8992 13.1381 13.1463 13.2246 13.3891C13.5901 14.4208 13.4129 14.8055 12.3484 15.176C12.1992 15.228 11.9536 15.1732 11.8239 15.0736C11.3816 14.7353 10.9757 14.3506 10.5474 13.9927C10.214 13.7148 9.97121 13.7569 9.85403 14.2131C9.73963 14.6651 9.54153 15.1087 9.50525 15.5649C9.44806 16.3103 8.93327 16.2288 8.46033 16.2485C7.9874 16.2681 7.5312 16.2934 7.44331 15.6126C7.38472 15.1564 7.20196 14.7142 7.05827 14.2706C6.91457 13.8257 6.66625 13.7106 6.29236 14.0587C5.81664 14.5023 5.33673 14.9416 4.78846 15.447C4.41876 15.2168 4.01279 15.0034 3.65983 14.724C3.5259 14.6174 3.42406 14.3408 3.45894 14.1724C3.57194 13.6263 3.75888 13.0957 3.90816 12.5567C4.04069 12.0836 3.84398 11.8899 3.37663 11.9685C3.01111 12.0303 2.63723 12.0766 2.28706 12.1931C1.62021 12.4135 1.17657 12.283 0.985443 11.5418C0.918479 11.2793 0.759439 11.0407 0.635276 10.7782C1.16401 10.3262 1.66067 9.91066 2.14895 9.48252C2.55771 9.12317 2.5047 8.84804 1.99409 8.62765C1.73879 8.51676 1.4793 8.41428 1.224 8.30058C0.476236 7.96369 0.181872 7.37974 0.340912 6.54873C0.363233 6.43503 0.38695 6.32133 0.419037 6.1599C1.0538 6.06445 1.69275 5.96899 2.3317 5.87213C2.88416 5.78791 3.00832 5.54226 2.71256 5.08184C2.48656 4.7281 2.2773 4.3519 1.9913 4.0529C1.57417 3.61494 1.623 3.25839 2.03316 2.87096C2.26753 2.65058 2.4754 2.40072 2.70698 2.15226C3.25665 2.39931 3.78539 2.63233 4.30994 2.87237C5.0047 3.19101 5.22931 3.04924 5.22931 2.26175C5.22931 1.8659 5.21117 1.46724 5.15816 1.0756C5.0591 0.33864 5.63109 0.340044 6.07473 0.192652C6.48628 0.0564906 6.86296 -0.0628263 7.11547 0.487435C7.30938 0.90715 7.60375 1.27914 7.85207 1.67358C8.13807 2.12699 8.43383 2.08488 8.69889 1.66797C8.96117 1.25527 9.20949 0.832752 9.4341 0.397596C9.60989 0.0550868 9.81078 -0.107746 10.2042 0.0747391C10.4121 0.170193 10.6464 0.219323 10.8738 0.257224C11.238 0.31618 11.3803 0.509895 11.3649 0.880479C11.344 1.37038 11.3468 1.86309 11.3691 2.35299C11.3942 2.90325 11.637 3.03941 12.1434 2.81201C12.4824 2.66041 12.8074 2.47511 13.1534 2.34316C13.4157 2.24209 13.8091 2.054 13.9542 2.16208C14.3337 2.44564 14.6294 2.85412 14.907 3.24997C14.9642 3.33139 14.8164 3.59108 14.7215 3.74268C14.476 4.13853 14.1955 4.51192 13.9528 4.90777C13.6612 5.38223 13.8105 5.65877 14.3825 5.72895C14.8205 5.7823 15.2586 5.84687 15.6981 5.86371C16.0747 5.87775 16.2617 5.99145 16.344 6.40274C16.5853 7.60012 16.5784 7.65346 15.4776 8.1181C14.0058 8.73855 13.9905 8.84523 15.253 9.84328C15.38 9.94295 15.5125 10.0356 15.8278 10.2686C15.2237 9.40251 15.8292 9.1358 16.2142 8.75539C16.5728 8.91261 16.916 9.04737 17.2466 9.2102C17.7014 9.4348 17.8409 9.23687 17.8256 8.80312C17.8228 8.73293 17.8256 8.66274 17.8214 8.59256C17.7907 7.86262 18.1543 7.45928 18.9123 7.38254C19.1174 7.70821 19.3281 8.04089 19.5373 8.37498C19.748 8.71328 19.9461 8.7231 20.1428 8.35954C20.2433 8.17565 20.3897 8.01282 20.4623 7.8191C20.6227 7.39237 20.8696 7.27165 21.3203 7.39799C21.7583 7.52011 21.9355 7.74471 21.8699 8.18688C21.856 8.27812 21.8671 8.37358 21.8685 8.46763C21.8727 9.33373 21.9508 9.37022 22.7293 9.01508C23.0613 8.86348 23.3613 8.4199 23.8119 8.93226C24.1579 9.3253 24.3044 9.60465 23.9082 10.044C23.7059 10.2686 23.611 10.5929 23.4101 10.9845C23.8817 11.0701 24.236 11.1838 24.5904 11.1866C25.0284 11.1895 25.1414 11.4267 25.1916 11.7888C25.2391 12.1356 25.2419 12.4219 24.8275 12.5679C24.469 12.6943 24.137 12.8922 23.6738 13.1154C24.0295 13.4228 24.2779 13.6516 24.5401 13.8622C24.847 14.1092 25.0465 14.3127 24.8191 14.7872C24.6099 15.2238 24.3825 15.315 23.9598 15.228C23.6291 15.1606 23.2873 15.1536 22.8032 15.1059C22.9511 15.614 23.1088 15.9944 23.1576 16.3875C23.1827 16.5952 23.0781 16.8914 22.9274 17.0332C22.6944 17.2508 22.4029 17.5175 22.0401 17.1525C21.7653 16.8774 21.4486 16.6457 21.0147 16.2808L21.0175 16.2794ZM8.35151 12.363C10.7818 12.363 12.6972 10.4525 12.7014 8.02405C12.7056 5.61104 10.7748 3.68793 8.34454 3.68513C5.98963 3.68232 3.99047 5.62367 4.01697 7.99597C4.04627 10.5957 6.14448 12.4402 8.35012 12.363H8.35151ZM19.9559 9.78573C18.3696 9.74923 17.1099 10.9522 17.0611 12.5539C17.015 14.046 18.2999 15.4231 19.7773 15.4624C21.3551 15.5045 22.7042 14.2327 22.7488 12.6634C22.7907 11.1333 21.5184 9.82222 19.9559 9.78573Z" fill="#D7E3FF"/>
<path d="M10.0061 8.06597C9.99217 9.03314 9.25278 9.74904 8.30411 9.71395C7.41265 9.68026 6.68442 8.90961 6.69976 8.01404C6.71511 7.07073 7.47404 6.31272 8.39061 6.32535C9.31974 6.33798 10.0215 7.09459 10.0075 8.06738L10.0061 8.06597Z" fill="#D7E3FF"/>
<path d="M20.9953 12.6093C20.9855 13.2354 20.4986 13.7281 19.8917 13.7225C19.2849 13.7169 18.798 13.2115 18.8036 12.5925C18.8092 11.9636 19.2891 11.4821 19.9071 11.4864C20.5223 11.4906 21.005 11.9889 20.9953 12.6093Z" fill="#D7E3FF"/>
</g>
<defs>
<clipPath id="clip0_1212_1430">
<rect width="25" height="18" fill="white" transform="translate(0.213989)"/>
</clipPath>
</defs>
</svg>
