<svg width="17" height="18" viewBox="0 0 17 18" fill="none" xmlns="http://www.w3.org/2000/svg">
<g clip-path="url(#clip0_1212_1642)">
<path d="M5.97037 9.92587C5.97634 9.84946 5.97313 9.83108 5.97955 9.81802C6.2627 9.26671 5.9153 8.90738 5.61976 8.53984C5.57066 8.47891 5.46832 8.43877 5.38893 8.4349C4.60235 8.39718 4.72488 8.52001 4.54361 7.69304C4.36601 6.88251 4.30085 7.05467 4.98279 6.64989C5.05851 6.60491 5.11313 6.4903 5.1425 6.39551C5.18976 6.24366 5.18288 6.06956 5.24437 5.92689C5.34855 5.68557 5.2999 5.50035 5.13378 5.32286C5.07549 5.26047 5.03465 5.17971 4.98188 5.11104C4.87449 4.97128 4.87495 4.8378 4.98417 4.69707C5.16774 4.4601 5.34992 4.22119 5.52569 3.97745C5.63537 3.82512 5.77029 3.76805 5.92265 3.87203C6.26637 4.10609 6.56375 4.0587 6.92813 3.85945C7.21999 3.69986 7.36776 3.52673 7.42834 3.20126C7.49672 2.83517 7.52747 2.82936 7.87395 2.82936C8.12635 2.82936 8.37875 2.83468 8.63115 2.82743C8.8115 2.82211 8.93816 2.89223 8.95606 3.08664C8.99553 3.51367 9.21581 3.72985 9.58707 3.91217C9.89867 4.06547 10.1254 4.06209 10.4071 3.90636C10.6843 3.75354 10.7385 3.78159 10.9289 4.03452C11.0905 4.24924 11.2493 4.46639 11.4158 4.67627C11.5306 4.82087 11.5613 4.97031 11.4273 5.1062C11.1267 5.41039 11.0951 5.73103 11.2066 6.16096C11.2906 6.48546 11.4122 6.67117 11.688 6.80513C12.0244 6.96859 12.0225 6.99422 11.9367 7.3874C11.8803 7.64661 11.8183 7.90389 11.7664 8.16407C11.7325 8.33431 11.6352 8.43248 11.4792 8.41072C11.0409 8.3493 10.744 8.51856 10.4976 8.91222C10.3686 9.11776 10.2828 9.27735 10.3622 9.51287C10.3874 9.58783 10.3906 9.67101 10.4081 9.74935C10.4489 9.93167 10.398 10.0579 10.2277 10.1391C9.95603 10.2683 9.6894 10.409 9.42324 10.5502C9.27638 10.6281 9.14513 10.6073 9.06024 10.4665C8.83583 10.0937 8.5435 9.97762 8.11304 9.99309C7.80098 10.0047 7.62934 10.1159 7.45129 10.3374C7.17869 10.6764 7.17135 10.6692 6.80284 10.4723C6.58486 10.3558 6.36137 10.2489 6.14981 10.1203C6.06766 10.0705 6.01122 9.97278 5.96946 9.92587H5.97037ZM7.85926 7.33758C7.55684 7.04887 7.28057 6.78337 7.00201 6.5198C6.78953 6.3191 6.61377 6.30556 6.46095 6.47337C6.30997 6.63973 6.34255 6.8501 6.55549 7.05516C6.89417 7.38063 7.23376 7.70464 7.57473 8.0277C7.83356 8.27289 7.97491 8.26563 8.21171 7.98949C8.70366 7.41641 9.19378 6.8414 9.6839 6.26639C9.83213 6.09277 9.98632 5.92399 10.1222 5.7407C10.2433 5.57724 10.2222 5.40121 10.0744 5.26628C9.92712 5.13183 9.76375 5.13909 9.62103 5.28175C9.51594 5.3867 9.42324 5.50518 9.32595 5.61883C8.84133 6.18611 8.35672 6.75387 7.8588 7.3371L7.85926 7.33758Z" fill="#D7E3FF"/>
<path d="M8.23144 15.3884C9.68435 15.3884 11.1373 15.3846 12.5907 15.3904C13.1391 15.3928 13.6067 15.77 13.7595 16.3058C13.9178 16.862 13.732 17.4689 13.2607 17.7639C13.0537 17.8935 12.7903 17.9869 12.5516 17.9883C9.66875 18.0033 6.7854 17.9999 3.90251 17.9965C3.18477 17.9956 2.63362 17.4225 2.63178 16.6951C2.62994 15.9654 3.17559 15.3928 3.89517 15.3899C5.34074 15.3841 6.78586 15.3879 8.23144 15.3884ZM8.7546 16.2667C8.66878 16.258 8.63849 16.2526 8.6082 16.2526C7.0791 16.2517 5.55001 16.2502 4.02091 16.2526C3.73547 16.2526 3.55144 16.4393 3.55649 16.7009C3.56108 16.949 3.7451 17.1333 4.01586 17.1343C5.30816 17.1381 6.6 17.1372 7.8923 17.1343C7.95517 17.1343 8.03823 17.1154 8.07724 17.0714C8.29936 16.8209 8.51045 16.5597 8.75505 16.2671L8.7546 16.2667Z" fill="#D7E3FF"/>
<path d="M2.04483 9.77901C1.42438 8.62222 0.827798 7.51039 0.215149 6.36811H1.72314C1.98426 3.76338 3.1756 1.82797 5.40545 0.659079C6.96989 -0.161125 8.79269 -0.149518 10.0974 0.331191C10.0318 0.546881 9.96567 0.764023 9.90005 0.98068C6.04013 -0.2622 2.55974 2.84355 2.44271 6.37729H3.94473C3.29813 7.53458 2.68181 8.63818 2.04483 9.77901Z" fill="#D7E3FF"/>
<path d="M6.34534 13.283C6.41555 13.0368 6.47659 12.8235 6.53716 12.6107C10.4375 13.7269 13.7504 10.6415 13.8889 7.15078H12.4911C13.1395 5.9906 13.7572 4.88603 14.3905 3.75293C15.0046 4.89667 15.6021 6.00946 16.2152 7.15223H14.6053C14.3515 9.78984 13.1524 11.7504 10.889 12.9116C9.44392 13.6529 7.924 13.739 6.34534 13.2825V13.283Z" fill="#D7E3FF"/>
</g>
<defs>
<clipPath id="clip0_1212_1642">
<rect width="16" height="18" fill="white" transform="translate(0.215149)"/>
</clipPath>
</defs>
</svg>
